<?xml version="1.0" encoding="utf-8"?>
<!-- Generator: Adobe Illustrator 23.1.1, SVG Export Plug-In . SVG Version: 6.00 Build 0)  -->
<svg version="1.1" id="baed4b18-14ee-447f-bd84-b0265ca0ad8a"
	 xmlns="http://www.w3.org/2000/svg" xmlns:xlink="http://www.w3.org/1999/xlink" x="0px" y="0px" viewBox="0 0 375 245"
	 style="enable-background:new 0 0 375 245;" xml:space="preserve">
<style type="text/css">
	.st0{fill:#85848B;}
	.st1{fill:#504F60;}
	.st2{opacity:0.2;enable-background:new    ;}
	.st3{fill:#00D1B2;}
	.st4{fill:#514E7F;}
	.st5{fill:#464353;}
	.st6{fill:#A1616A;}
	.st7{opacity:0.1;enable-background:new    ;}
	.st8{fill:#33323D;}
	.st9{fill:#8DD070;}
	.st10{fill:#FBBEBE;}
	.st11{opacity:5.000000e-02;enable-background:new    ;}
	.st12{fill:#3F3D56;}
	.st13{fill:url(#SVGID_1_);}
	.st14{fill:#2D293D;}
	.st15{opacity:5.000000e-02;}
	.st16{fill:#FFCDD3;}
	.st17{fill:#575988;}
	.st18{opacity:0.1;}
</style>
<title>wallet</title>
<g>
	<rect x="1.6" y="240" class="st0" width="371.8" height="2.7"/>
	<path class="st1" d="M296.2,192c0,2.1-12.2,8.2-26.7,8.2s-25.7-6.1-25.7-8.2c0-2.1,11.7-1.4,26.2-1.4S296.2,189.9,296.2,192z"/>
	<path class="st2" d="M296.2,192c0,2.1-12.2,8.2-26.7,8.2s-25.7-6.1-25.7-8.2"/>
	<path class="st3" d="M150.4,153.7c2.3,0.3,4.8,0.5,7-0.2c0.4-0.1,0.7-0.4,0.7-0.7c0-0.1-0.1-0.2-0.2-0.4c-0.8-1.3-1.6-2.6-2.1-4
		c0-0.1-0.1-0.1-0.1-0.2c-0.1,0-0.2,0-0.2,0c-1,0.3-1.9,0.9-3,1.2c-0.5,0.1-1.1,0.2-1.6,0.1c-0.5-0.1-1.1-0.4-1.5-0.4
		C149.7,150.6,150.3,152.1,150.4,153.7z"/>
	<path class="st3" d="M194.9,149.7c1.5-1.1,3.2-2.2,4.1-3.8c0.1-0.1,0.1-0.2,0.1-0.3s-0.1-0.2-0.1-0.3c-0.9-1.4-2-2.6-3.3-3.6
		c-0.7,0.5-1.3,1.1-1.8,1.7c-0.4,0.4-1.5,1.1-1.5,1.7c0,0.4,0.4,0.8,0.6,1.1c0.3,0.4,0.5,0.8,0.7,1.2
		C193.7,147.5,195,149.7,194.9,149.7z"/>
	<path class="st4" d="M159.6,158.4c0,0.4-0.1,0.7-0.3,1c-0.2,0.2-0.4,0.3-0.6,0.4c-3.3,1.2-7.1-0.3-10.4,0.9c-0.7,0.2-1.3,0.6-2,0.8
		c-0.8,0.2-1.6,0.4-2.5,0.4c-1.2,0.1-2.3,0.2-3.5,0.2c-0.9,0.1-1.8,0-2.6-0.2c-0.9-0.2-1.6-0.8-2-1.6c-0.2-0.4-0.2-0.8-0.1-1.1
		c0.1-0.1,0.1-0.2,0.2-0.4c0.2-0.2,0.5-0.5,0.8-0.6l1.2-0.8c0.6-0.4,1.2-0.7,1.8-1c0.5-0.2,1-0.2,1.5-0.4c1.7-0.5,3-1.8,4.2-3.1
		l1.6-1.8c0.2-0.2,0.3-0.3,0.6-0.5c0.2-0.1,0.5-0.1,0.7-0.1c1.6,0.1,3.1,0.6,4.5,1.5c0.3,0.3,0.7,0.5,1.1,0.7c1,0.4,2.2,0.1,3.1-0.4
		c0.4-0.2,0.3-0.4,0.5-0.8c0.2-0.4,0.6-0.7,1-0.3c0.1,0.1,0.2,0.3,0.2,0.4c0.4,1.2,0.2,2.4,0.2,3.7c0,0.2,0,0.4,0.1,0.6
		c0.1,0.2,0.2,0.4,0.3,0.5c0,0,0,0.1,0.1,0.1C159.6,157.2,159.7,157.8,159.6,158.4z"/>
	<path class="st5" d="M159.6,158.4c0,0.4-0.1,0.7-0.3,1c-0.2,0.2-0.4,0.3-0.6,0.4c-3.3,1.2-7.1-0.3-10.4,0.9c-0.7,0.2-1.3,0.6-2,0.8
		c-0.8,0.2-1.6,0.4-2.5,0.4c-1.2,0.1-2.3,0.2-3.5,0.2c-0.9,0.1-1.8,0-2.6-0.2c-0.9-0.2-1.6-0.8-2-1.6c-0.2-0.4-0.2-0.8-0.1-1.1
		c0.1-0.1,0.1-0.2,0.2-0.4c0.2,0.4,0.3,0.9,0.4,1.1c0.3,0.6,0.9,1,1.5,1.1c0.5,0,1,0,1.4-0.2c3-0.7,6.1-0.7,9-1.9
		c1-0.4,1.9-0.9,2.9-1.1c1-0.2,2.1-0.2,3.2-0.3c1.7-0.1,3.3-0.6,5-0.9C159.6,157.2,159.7,157.8,159.6,158.4z"/>
	<path class="st4" d="M202.4,149.5c-0.2,1.2-0.9,2.3-1.8,3.2c-0.9,0.9-1.8,1.7-2.5,2.8c-0.9,1.3-1.2,2.9-2.3,4
		c-0.4,0.4-0.9,0.7-1.4,1c-0.6,0.3-1.2,0.6-1.8,0.8c-1.7,0.5-3.4,0.4-5.2,0.3c-0.6,0-1.1-0.1-1.6-0.3c-0.2-0.1-0.5-0.3-0.7-0.4
		c-0.4-0.3-0.8-0.6-1.1-1.1c-0.1-0.2-0.2-0.5-0.1-0.8c0.1-0.3,0.3-0.5,0.5-0.8c0.4-0.4,0.8-0.8,1.2-1.1c0.6-0.4,1.2-0.9,1.6-1.4
		c0.3-0.4,0.5-0.9,0.6-1.4c0.3-0.9,0.4-1.8,0.5-2.7c0-0.6,0.1-1.2,0.2-1.8c0.3-0.9,1-1.8,0.9-2.7c0-0.1,0-0.3,0-0.4
		c0.1-0.1,0.2-0.2,0.3-0.2c0.5-0.2,1.1-0.3,1.7-0.4c0.6,0,1.2,0.2,1.6,0.6c0.2,0.3,0.4,0.7,0.8,0.8c0.2,0,0.4,0.1,0.5,0
		c0.9-0.1,1.8-0.2,2.5-0.8c0.6-0.6,1-1.4,1-2.3c0-0.3-0.1-0.7,0.4-0.7c0.4,0,0.7,0.4,0.9,0.6c0.7,0.9,1.4,1.9,1.7,3
		c0.1,0,0.2-0.1,0.3-0.1c0.4,0,0.9,0.2,1.1,0.6C202.3,148.4,202.5,149,202.4,149.5z"/>
	<path class="st5" d="M202.4,149.5c-0.2,1.2-0.9,2.3-1.8,3.2c-0.9,0.9-1.8,1.7-2.5,2.8c-0.9,1.3-1.2,2.9-2.3,4
		c-0.4,0.4-0.9,0.7-1.4,1c-0.6,0.3-1.2,0.6-1.8,0.8c-1.7,0.5-3.4,0.4-5.2,0.3c-0.6,0-1.1-0.1-1.6-0.3c-0.2-0.1-0.5-0.3-0.7-0.4
		c-0.4-0.3-0.8-0.6-1.1-1.1c0.3-0.2,0.7-0.2,1.1-0.3c0.8,0,1.3,0.8,2.1,1c1,0.3,2.1-0.4,3.1-0.7c0.7-0.2,1.4-0.1,2.1-0.4
		c0.6-0.2,1.1-0.5,1.6-0.9c0.6-0.4,1.2-1,1.7-1.6c0.4-0.6,0.7-1.3,1-1.9c0.6-1.3,1.2-2.6,2-3.8c0.1-0.2,0.2-0.4,0.4-0.5
		c0.2-0.2,0.4-0.3,0.5-0.4c0.7-0.5,1-1.4,1.3-2.3c0.1-0.3,0.2-0.5,0.3-0.8c0.4,0,0.9,0.2,1.1,0.6C202.3,148.4,202.5,149,202.4,149.5
		z"/>
	<path class="st6" d="M128.1,39.1c0.9,0.7,1.6,1.5,2.1,2.5s3.4,8.5,3.2,9.6c0.9-0.9,4.6-1.1,5.5-2c0.4-0.4,2.5-2.4,2.8-2.8
		s2.7-1.4,2.9-1.9c1-1.7-6.9-8.3-5.9-10c0.1-0.1,0.1-0.2,0.1-0.3s-0.1-0.2-0.1-0.2c-0.6-0.7-1.5-1.1-2.3-1.5
		c-0.8-0.5-1.5-1.2-1.7-2.1c-0.7,0.3-1.4,0.8-2,1.4c-1.4,1.2-2.8,2.5-4.2,3.8c-0.5,0.5-1.6,1.2-1.8,1.9
		C126.5,38.1,127.6,38.6,128.1,39.1z"/>
	<path class="st4" d="M140.8,36.3c-1.2,0.8-2.3,1.7-3.4,2.7c-1,1-1.9,2.1-2.1,3.4c-0.1,0.5-0.1,1.1-0.2,1.6c-0.4,2.3-2.4,4-3.2,6.2
		c-0.3,0.7-0.4,1.4-0.6,2.1c-0.2,1.3-0.4,2.7-0.4,4.1c0,1.3,1.3,2.2,1.8,3.5s0.6,2.5,0.8,3.8c0.5,2.4,1.3,4.7,2.1,7
		c1.7,4.8,7.4,18.2,9.2,23c5.4-1.3,19.6-4.4,24.3-7.3c1.6-0.9-11-11.6-9.3-12.3c0.3-0.1,0.6-0.4,0.5-0.7c0-0.1,0-0.1-0.1-0.2
		c-1.7-7.4-7-13.5-9.4-20.7c-0.8-2.5-2.3-4.6-3.5-7c-1-2.2-1.6-4.5-2.8-6.6c-0.2-0.4-0.5-0.8-0.9-1.1c-0.3-0.2-0.6-0.4-1-0.6
		C142.1,36.8,141.4,36.6,140.8,36.3z"/>
	<circle class="st6" cx="128.4" cy="29.8" r="8.4"/>
	<path class="st5" d="M136.9,33.8c0.9-0.8,2.1-1,3.1-0.5c0.6,0.3,1.1,0.9,0.9,1.5l4.2,0.1c0.7,0,1.3,0,2,0.2c0.7,0.1,1.2,0.5,1.6,1
		c0,0.1,0.1,0.1,0.2,0.2c0.1,0,0.1,0,0.2-0.1c0.6-0.3,1.4-0.4,2.1-0.4c2.2,0.1,4.3,1.3,6.1,2.7c0.3,0.2,0.6,0.5,0.7,0.9
		c0.1,0.5,0,1.1,0.4,1.4c0,3.9,1.3,7.5,2.2,11.3c0.2,0.7,0.8,1.3,1.3,1.8c0.6,0.6,1,1.3,1.3,2c0.8,2-0.3,4.3,0.4,6.3
		c0.3,0.8,0.9,1.5,1.4,2.2c0.7,0.8,1.1,1.8,1.2,2.9c0,0.5,0,1,0,1.4c0,0.6,0.2,1.3,0.4,1.9c0.3,1.1,0.6,2.3,0.9,3.4
		c0.5,1.8,1.2,3.8,2.9,4.8c-4,0.7-8.2,1.3-12,0c-0.5-0.2-1-0.4-1.5-0.7c-1.4-1-2-2.6-2.6-4.2c-0.7-1.8-1.3-3.6-1.5-5.5
		c0-0.6-0.1-1.2-0.3-1.8c-0.4-1-1.4-1.6-2.4-2.2c-1.1-0.6-2-1.3-2.8-2.2s-1.2-2.1-1.1-3.3c0.1-0.6,0.3-1.1,0.3-1.7s-0.2-1.3-0.8-1.4
		c-2.9-0.9-4.3-4.3-4.9-7.3c-0.3-1.5-0.4-3.1-0.4-4.6v-3c-0.8-0.7-1.3-1.8-1.3-2.9c0-0.3,0-0.6,0-0.9c-0.1-0.4-0.4-0.7-0.7-1
		C137.8,35.4,137.3,34.6,136.9,33.8z"/>
	<path class="st5" d="M128,43.4c-0.1,0.9,0.1,1.9-0.1,2.8c-0.1,0.4-0.2,0.7-0.3,1c-0.3,1.3-0.2,2.7,0.4,3.9c0.6,1.2,1.2,2.4,2,3.5
		c0.3,0.4,0.5,0.8,0.6,1.2s0.2,0.9,0.2,1.4c0.2,1.9,0.5,3.7,1,5.6c0.4,1.6,4.9,15.2,6,16.4c0.2,0.3,0.5,0.5,0.8,0.5
		c0.2,0,0.5,0,0.7-0.1l2.1-0.8c0.2-0.1,0.3-0.1,0.5-0.3c0.2-0.2,0.3-0.5,0.3-0.8c0.2-1.7-4.4-15.4-4.9-17c-1.7-4.9-4-9.7-5.2-14.8
		c-0.3-1.4-0.5-3.6-1.5-4.7c-0.4-0.5-0.3-0.3-0.8,0c-0.3,0.1-0.5,0.2-0.8,0.4C128.4,41.9,128,42.6,128,43.4z"/>
	<path class="st5" d="M168.9,74.1"/>
	<path class="st3" d="M134.4,52.7c0.6,3,1.2,6,1.7,9l8.3-2.2c0.1-0.9-0.4-1.7-0.7-2.5c-0.8-1.9-0.8-4-1.4-6
		c-0.5-1.5-1.3-2.9-1.7-4.4c-0.3-0.9-0.4-1.8-0.6-2.7c-0.3-0.9-0.6-1.7-1-2.5c-0.5-1.2-1.1-2.3-1.8-3.4c-1.1,0.4-2.2,0.9-2.8,1.8
		c-0.3,0.5-0.5,1.1-0.5,1.8c-0.1,1.9,0.5,3.7,0.3,5.6C134,49.2,134.1,51,134.4,52.7z"/>
	<path class="st5" d="M144.6,92.8c0.5,1.8-0.2,3.6-0.8,5.4c-0.8,2.6-1.4,5.4-1.7,8.1c0,0.7-0.2,1.4-0.4,2.1c-0.3,0.6-0.7,1.1-1,1.7
		c-0.8,1.5-0.8,3.3-0.6,5c0.1,1.1,0.3,2.2,0.5,3.3c0.3,1.3,0.6,2.7,0.2,4.1c0.7-0.1,1.1,0.7,1.1,1.4c0,0.7-0.3,1.4,0.1,2
		c0.8,0.3,0.8,1.4,0.8,2.3c0,1.5,0.2,3,0.6,4.5c1.2,5.9,2.5,11.8,3.9,17.7c3,0.9,6.5,1.9,9.3,0.6c0.5-0.2,1.1-0.6,1.2-1.2
		c0-0.3,0-0.6-0.1-0.9l-1.4-4.9c-0.3-1.2-0.7-2.4-0.5-3.6c0.1-0.9,0.5-1.9,0.1-2.7c-0.2-0.3-0.4-0.5-0.6-0.8c-0.7-1-0.3-2.4-0.3-3.7
		c0-0.3,0-0.6-0.1-0.8c-0.1-0.3-0.2-0.6-0.4-0.9c-1.1-2.2-1.7-4.6-1.6-7c0-0.3,0-0.6-0.1-0.9c-0.1-0.1-0.2-0.2-0.2-0.4
		c-0.1-0.2,0-0.5,0.1-0.7c-0.4-0.3-0.8-0.7-1.1-1.1c0.7-0.4,0.9-1.4,0.5-2.1c-0.1-0.1-0.1-0.2-0.2-0.3c0.4-0.1,0.7-0.5,0.6-0.9
		c0-0.2-0.1-0.3-0.2-0.4c-0.2-0.1-0.4-0.2-0.5-0.4c-0.2-0.3,0-0.6,0.1-0.9l0.8-1.5c0.6-1.1,0.8-2.5,1.4-3.5c0.9-1.5,1.6-3.3,2.2-5
		l2.4-6.6l1.6,1.4c0.5,0.4,1,0.9,1.3,1.5c0.2,0.6,0.4,1.2,0.4,1.8c0.6,3.6,2.8,6.7,3.7,10.2c0.2,0.8,0.3,1.6,0.8,2.3
		c0.2,0.2,0.3,0.4,0.4,0.7c0.1,0.3,0.2,0.7,0.2,1.1c0.2,1.5,0.9,2.8,2.1,3.6c0.8,0.5,1.8,0.9,2.2,1.8c0.1,0.3,0.2,0.5,0.4,0.8
		c0.4,0.5,1.2,0.5,1.4,1.1c0.1,0.3-0.1,0.7,0.1,1c0.1,0.1,0.2,0.2,0.4,0.3l2.3,1.2c2.6,1.3,3.9,4.3,5.8,6.4c0.7,0.7,1.2,1.5,1.7,2.3
		c0.8,1.5,1.2,3.3,2.6,4.3c0.4,0.2,0.7,0.4,1,0.7c0.4,0.6,0.3,1.4,0.3,2.1c0,0.7,0.6,1.6,1.3,1.4c-0.2,0.9-0.2,1.8,0,2.7
		c3-0.2,5.9-1.3,8.2-3.3c0.7-0.6,1.3-1.3,1.3-2.2c0-0.2,0-0.3-0.1-0.4c-0.1-0.2-0.3-0.3-0.5-0.4c-2.2-1.2-2.8-3.9-3.9-6.1
		c-1-1.9-2.4-3.6-3.5-5.4c-2.6-3.9-4.3-8.6-8.2-11.1c-0.9-0.6-1.8-1.1-2.3-2c-0.2-0.5-0.3-1.1-0.5-1.7s-0.6-1.1-1.2-1.1
		c0.3-0.8,0.3-1.7,0.3-2.6c0-0.4,0-0.7-0.1-1.1s-0.3-0.8-0.6-1.1c-1-1.7-1.5-3.7-1.5-5.7c0-1,0.2-2.1-0.1-3.1
		c-0.2-0.5-0.4-0.9-0.6-1.4c-0.3-0.9-0.4-1.8-0.4-2.7l-0.2-3.4c0-1.1-0.2-2.3-0.4-3.4c-0.7-2.6-1.4-13.7-3.8-15
		c-2.4-1.2-6.6,7.3-9.3,7.4c-1.2,0.1-2.4,0.3-3.5,0.7c-1.8,0.7-3.3,1.9-4.8,3.2l-5,4.2C146.7,91.4,145.8,92.2,144.6,92.8z"/>
	<path class="st5" d="M120.5,20.5c1.1-1.5,3-2.3,4.9-2.4s3.7,0.5,5.4,1.4c0.5,0.3,1,0.5,1.6,0.6c0.9,0.2,1.9-0.1,2.7,0.4
		c1.1,0.6,1.3,2,1.2,3.2s-0.3,2.5,0.3,3.5c0.2,0.3,0.4,0.6,0.6,0.9c0.3,0.6,0.1,1.3,0,2c-0.4-0.4-0.6-0.9-1-1.3s-1-0.7-1.5-0.4
		s-0.4,0.9-0.5,1.4c0,0.5-0.2,1.1-0.6,1.3c-0.4,0.1-0.8-0.1-1.1-0.4c-0.8-1-0.5-2.6-1.3-3.6c-0.5-0.6-1.2-0.8-1.6-1.4
		c-0.3-0.5-0.4-1.1-0.7-1.6s-1-0.9-1.4-0.5c-0.2,0.1-0.3,0.3-0.4,0.5c-0.6,0.8-1.6,1.1-2.6,0.8c-0.3-0.2-0.7-0.4-1.1-0.5
		c-0.5,0-1,0.2-1.3,0.7s-0.4,1-0.4,1.5c0,0.7,0.1,1.5-0.3,2c-0.2,0.2-0.3,0.4-0.6,0.5c-0.6,0.4-1.4,0.6-2,0.2
		c-0.4-0.4-0.5-0.9-0.4-1.4s0.2-1,0.4-1.5c0.3-1.1-0.1-2.3,0.2-3.4C119.4,22.2,119.9,21.3,120.5,20.5z"/>
	<path class="st3" d="M125,45.5c-0.1,0.3,0,0.5,0.1,0.8c0.1,0.2,0.2,0.3,0.4,0.4c1.2,0.7,2.5,1.2,3.9,1.3c0.2,0,0.4,0.1,0.5,0.1
		c0.3,0.2,0.4,0.7,0.2,1.1c-0.2,0.4-0.3,0.8-0.3,1.2c0.1,0.7,1,1.1,1.7,1.2c1,0.1,2.2,0.1,3-0.6c0.6-0.5,1-1.1,1.2-1.9
		c2-4.7,2.7-9.8,4.8-14.5c0.2-0.3,0.3-0.6,0.3-1c0-0.3-0.1-0.7-0.4-0.9c-0.4-0.2-1-0.1-1.2-0.5c-0.1-0.2-0.1-0.4-0.2-0.6
		c-0.2-0.4-0.9-0.4-1.3-0.6c-0.3-0.2-0.6-0.5-0.9-0.6c-0.4,0-0.7,0.1-1,0.4c-1.2,1.1-1.8,2.7-2.5,4.2c-1,2.3-2.2,4.5-3.6,6.7
		c0.2-0.2-0.8-2.1-1.1-2.2c-0.6-0.1-1.4,1-1.8,1.4C125.9,42.3,125.2,43.9,125,45.5z"/>
	<path class="st7" d="M137.9,31.4c-0.5,0-1,0.3-1.3,0.7c-0.4,0.5-0.5,1.1-0.5,1.8c-0.3,2-1,3.9-2.1,5.6"/>
	<path class="st7" d="M139.7,32.8c-0.7,0-1.4,0.4-1.7,1c-0.2,0.6-0.4,1.1-0.4,1.7c-0.3,1.3-0.9,2.6-1.7,3.7"/>
	<path class="st8" d="M223.9,102.1v-4.4c0-6.7-5.5-12.2-12.2-12.2H37.9c-6.7,0-12.2,5.5-12.2,12.2v8.1L223.9,102.1z"/>
	<path class="st9" d="M86.2,80.3c0,0-0.5,30.8,5,40.9s7.8,54.2,7.8,54.2s57.2,5.9,97-7.1c39.9-13,124.7-18.3,124.7-18.3l-14.3-96.3
		c0,0-70.6-4.5-110.8,14.6S86.2,80.3,86.2,80.3z"/>
	<path class="st7" d="M86.2,80.3c0,0-0.5,30.8,5,40.9s7.8,54.2,7.8,54.2s57.2,5.9,97-7.1c39.9-13,124.7-18.3,124.7-18.3l-14.3-96.3
		c0,0-70.6-4.5-110.8,14.6S86.2,80.3,86.2,80.3z"/>
	<path class="st9" d="M98.9,91.5c0,0-1.8,25.4,2.7,33.5s4.7,44.3,4.7,44.3s51.5,2.4,88.1-10.1s113.5-20.5,113.5-20.5L299.2,60
		c0,0-63.7-0.7-100.8,16.9S98.9,91.5,98.9,91.5z"/>
	
		<ellipse transform="matrix(0.9923 -0.1236 0.1236 0.9923 -12.8965 24.9077)" class="st7" cx="194.3" cy="116.4" rx="13.4" ry="28.7"/>
	<path class="st2" d="M267.7,6.7c0,0-68.6,17.4-100.9,47.9s-100.4,45-100.4,45s9,29.4,17.3,37.4s24,49.2,24,49.2
		s56.2-11.9,90.2-36.5s113-55.7,113-55.7L267.7,6.7z"/>
	<path class="st9" d="M65.3,95.2c0,0,9,29.4,17.3,37.4s24,49.2,24,49.2s56.3-11.9,90.2-36.5s113-55.7,113-55.7L266.7,2.3
		c0,0-68.6,17.4-100.9,47.9S65.3,95.2,65.3,95.2z"/>
	<path class="st7" d="M65.3,95.2c0,0,9,29.4,17.3,37.4s24,49.2,24,49.2s56.3-11.9,90.2-36.5s113-55.7,113-55.7L266.7,2.3
		c0,0-68.6,17.4-100.9,47.9S65.3,95.2,65.3,95.2z"/>
	<path class="st9" d="M80.8,102.1c0,0,6.1,24.7,12.9,31.1c6.8,6.3,18.1,40.7,18.1,40.7s49.7-13.5,80.7-36.6s101.8-54.4,101.8-54.4
		l-32.5-72.3c0,0-60.8,18.9-90.8,47S80.8,102.1,80.8,102.1z"/>
	
		<ellipse transform="matrix(0.9065 -0.4221 0.4221 0.9065 -23.9867 84.6621)" class="st7" cx="179.2" cy="96.5" rx="13.4" ry="28.7"/>
	<path class="st7" d="M228.6,106.4v122.2c0,5.8-4.7,10.6-10.6,10.6l0,0H36.3c-5.8,0-10.6-4.7-10.6-10.6V94.1
		c5.2,1.9,5.2,1.9,10.6,1.8H218C223.8,95.8,228.5,100.5,228.6,106.4z"/>
	<path class="st1" d="M228.6,107.9v122.2c0,5.8-4.7,10.6-10.6,10.6H36.3c-5.8,0-10.6-4.7-10.6-10.6V95.6c5.2,1.9,5.2,1.9,10.6,1.8
		H218C223.8,97.4,228.5,102.1,228.6,107.9z"/>
	<path class="st7" d="M228,153.1v39.1h-37.9c-10.8-0.1-19.4-9-19.3-19.8c0.1-10.6,8.7-19.1,19.3-19.3H228z"/>
	<path class="st8" d="M228.6,152.1v39.1h-37.9c-10.8-0.1-19.4-9-19.3-19.8c0.1-10.6,8.7-19.1,19.3-19.3H228.6z"/>
	<circle class="st7" cx="192.5" cy="172.7" r="7.6"/>
	<circle class="st3" cx="193" cy="171.6" r="7.6"/>
	<path class="st10" d="M294.4,151.7c0.3,3.3-2.2,6.4-1.4,9.6c0.2,0.7,0.4,1.3,0.6,2c0.3,1.9-0.8,3.7-1.9,5.3l-9.3,13.6
		c-0.4,0.6-0.8,1.1-1.3,1.6c-1.8,1.6-4.4,1.4-6.8,1.9c-1.6,0.3-3.2,1-4.5,2c-0.1,0.1-0.1,0.3,0,0.4c0.8,1.1,2.1,1.7,3.4,1.6
		c0.2,0.3,0,0.8-0.4,1c-0.5,0.4-1.2,0.4-1.3,1.3c0,0.3,0,0.6,0.2,0.9c0.4,0.6,1,1,1.6,1.1c3.2,1,6.7-0.7,9.1-3.1
		c2.4-2.3,4.1-5.3,6.5-7.7c1.3-1.3,2.8-2.5,4.1-3.7c2.7-2.6,4.8-5.7,6.8-8.8c0.6-0.9,1.2-1.9,1.5-3s0.1-2.2,0.4-3.2
		c0.4-1.4,1.4-2.5,2.2-3.6c1.6-2.3,2.7-5,2.5-7.8s-1.9-5.6-4.6-6.5c-0.8-0.3-1.7-0.4-2.6-0.2c-1.1,0.3-1.9,1.2-2.6,2.1l-1.8,2
		c-0.4,0.4-0.8,1-1,1.6s-0.1,1.3,0.4,1.7"/>
	<path class="st11" d="M294.4,151.7c0.3,3.3-2.2,6.4-1.4,9.6c0.2,0.7,0.4,1.3,0.6,2c0.3,1.9-0.8,3.7-1.9,5.3l-9.3,13.6
		c-0.4,0.6-0.8,1.1-1.3,1.6c-1.8,1.6-4.4,1.4-6.8,1.9c-1.6,0.3-3.2,1-4.5,2c-0.1,0.1-0.1,0.3,0,0.4c0.8,1.1,2.1,1.7,3.4,1.6
		c0.2,0.3,0,0.8-0.4,1c-0.5,0.4-1.2,0.4-1.3,1.3c0,0.3,0,0.6,0.2,0.9c0.4,0.6,1,1,1.6,1.1c3.2,1,6.7-0.7,9.1-3.1
		c2.4-2.3,4.1-5.3,6.5-7.7c1.3-1.3,2.8-2.5,4.1-3.7c2.7-2.6,4.8-5.7,6.8-8.8c0.6-0.9,1.2-1.9,1.5-3s0.1-2.2,0.4-3.2
		c0.4-1.4,1.4-2.5,2.2-3.6c1.6-2.3,2.7-5,2.5-7.8s-1.9-5.6-4.6-6.5c-0.8-0.3-1.7-0.4-2.6-0.2c-1.1,0.3-1.9,1.2-2.6,2.1l-1.8,2
		c-0.4,0.4-0.8,1-1,1.6s-0.1,1.3,0.4,1.7"/>
	<path class="st12" d="M301.4,235.7c-2,1.2-4.6,1.3-6.9,1c-0.4,0-0.8-0.1-1.1,0.2c-0.4,0.4,0.1,1.1,0.5,1.4c1.4,1,3,1.7,4.7,2
		c1.5,0.2,3.1,0.3,4.6,0.3c4.3,0.1,8.5,0.1,12.7-0.5c0.2,0,0.5-0.1,0.7-0.2c0.3-0.2,0.5-0.5,0.5-0.8c0.3-1.1-0.3-2.3-1.1-3
		c-0.8-0.8-1.9-1.2-3-1.6l-3.7-1.4c-0.9-0.3-2.2-1.2-3.2-1.2C304.5,232.1,302.8,234.9,301.4,235.7z"/>
	<path class="st11" d="M301.4,235.7c-2,1.2-4.6,1.3-6.9,1c-0.4,0-0.8-0.1-1.1,0.2c-0.4,0.4,0.1,1.1,0.5,1.4c1.4,1,3,1.7,4.7,2
		c1.5,0.2,3.1,0.3,4.6,0.3c4.3,0.1,8.5,0.1,12.7-0.5c0.2,0,0.5-0.1,0.7-0.2c0.3-0.2,0.5-0.5,0.5-0.8c0.3-1.1-0.3-2.3-1.1-3
		c-0.8-0.8-1.9-1.2-3-1.6l-3.7-1.4c-0.9-0.3-2.2-1.2-3.2-1.2C304.5,232.1,302.8,234.9,301.4,235.7z"/>
	<path class="st5" d="M304,186.8c-1.5,2-3.1,4.4-2.7,6.9c0.2,1.4,1,2.6,1.5,3.8c0.8,1.7,1.2,3.5,1.5,5.4c0.6,2.7,1.2,5.3,1.5,8.1
		c0.4,3.1-1.5,11.9-1.7,15c0,0.7-0.1,1.5-0.6,2.1c-0.2,0.2-0.5,0.4-0.6,0.7s0,0.5,0.1,0.8c0.9,1.9,2.6,3.4,4.6,4.2s6.7,2.3,8.9,2.3
		c0.3,0,0.6,0,0.8-0.1c0.3-0.2,0.5-0.4,0.6-0.7c1.5-2.9,0.1-13.4,0.1-16.8c0-2.8,0.7-5.5,0.6-8.3c-0.1-2.2-0.7-4.4-0.9-6.6
		c-0.4-3.6,0.3-7.3,1-10.9c0.5-2.8,1-5.5,1.7-8.2c0.4-1.7,0.9-3.3,1.8-4.8c0.7-1.1,1.7-2.1,2.5-3.2c2.3-3,3.3-6.8,2.8-10.5
		c0-0.4-5.3,1.3-5.8,1.5c-1.9,0.8-3.6,1.9-5.2,3.3c-1.2,1.2-2.2,2.7-3.2,4c-1.5,1.8-3,3.7-4.5,5.6
		C307.2,182.5,305.6,184.7,304,186.8z"/>
	<path class="st11" d="M304,186.7c-1.5,2-3.1,4.4-2.7,6.9c0.2,1.4,1,2.6,1.5,3.8c0.8,1.7,1.2,3.5,1.5,5.4c0.6,2.7,1.2,5.4,1.5,8.1
		c0.4,3.1-1.5,11.9-1.7,15c0,0.7-0.1,1.6-0.6,2.1c-0.2,0.2-0.5,0.4-0.6,0.7s0,0.5,0.1,0.8c0.9,2,2.6,3.4,4.6,4.3
		c2,0.9,6.7,1.6,8.9,1.7c0.3,0,0.6,0,0.8-0.1c0.3-0.2,0.5-0.4,0.6-0.7c1.5-2.9,0.1-12.8,0.1-16.1c0-2.8,0.7-5.5,0.6-8.3
		c-0.1-2.2-0.7-4.4-0.9-6.6c-0.4-3.6,0.3-7.3,1-10.9c0.5-2.8,1-5.5,1.7-8.2c0.4-1.7,0.9-3.3,1.8-4.8c0.7-1.1,1.7-2.1,2.5-3.2
		c2.3-3,3.3-6.8,2.8-10.5c0-0.4-5.3,1.3-5.8,1.5c-1.9,0.8-3.6,1.9-5.2,3.3c-1.2,1.2-2.2,2.7-3.2,4c-1.5,1.8-3,3.7-4.5,5.6
		C307.2,182.4,305.6,184.5,304,186.7z"/>
	<circle class="st10" cx="286.9" cy="133.3" r="8.6"/>
	<path class="st10" d="M294.6,132.9c1.6,2.6,4.2,4.4,7.1,5l-0.6,2.4c-1.1,4-2.4,8.3-5.5,11.1c0.4-1.4-0.1-2.8-0.9-4
		s-1.9-2.1-2.9-3.1l-4.9-4.3c-0.1-0.1-0.3-0.3-0.4-0.4c-0.1-0.3-0.1-0.6,0-0.9c0.6-2,2.4-3.2,3.9-4.5c0.7-0.7,1.4-1.5,2-2.3
		C293.4,130.5,294,131.9,294.6,132.9z"/>
	<path class="st5" d="M275.6,124.6l-0.2-1.6c1.4,0.4,2.6-0.8,3.5-2s1.7-2.6,3-3.1c1.6-0.6,3.3,0.4,4.8,1.2c1.7,1,3.6,1.6,5.6,1.8
		c0.3,0,0.6,0.1,0.9,0.1c1,0.4,1.5,1.6,1.6,2.7s0.1,2.3,0.6,3.4c0.4,0.8,1,1.3,1.4,2.1c1.1,2,0,4.8,1.1,6.8l-2.8-2.5
		c-0.3-0.2-0.6-0.5-0.9-0.3c-0.2,0.2-0.2,0.5-0.3,0.8c-0.3,0.8-1.3,1-2,0.7s-1.2-1-1.8-1.6c-1.2-1.4-2.7-2.7-4.4-3.3
		c-1.5-0.6-3.2-0.5-4.6,0.3c-1.3,0.7-2.2,2.4-3.8,2.5c-2.2,0.1-3.1-3.9-4.1-5.5c0.8-0.6,1-1.6,0.6-2.4
		C274.1,124.6,275.5,124.4,275.6,124.6z"/>
	<path class="st6" d="M169.2,74.4c-0.7,0.6-1.3,1.3-1.9,2c-0.6,0.7-0.9,1.6-0.9,2.6c0,0.3,0.1,0.5,0.2,0.8c0.2,0.2,0.5,0.3,0.7,0.2
		c0.1-0.1,0.3-0.2,0.4-0.3c0.4-0.4,0.8-0.9,1.2-1.3c0.2-0.2,0.4-0.3,0.6-0.3c0.1,0,0.2,0.1,0.2,0.2c0.2,0.2,0.4,0.5,0.5,0.8
		c0.1,0.5-0.2,1.1-0.5,1.5c-0.4,0.4-0.8,0.8-0.9,1.4c-0.1,0.1-0.1,0.3,0,0.4s0.2,0.2,0.3,0.2c1,0.6,2.3,0.6,3.3,0.2
		c0.7-0.3,1.3-0.8,2.1-1c0.3-0.1,0.6-0.2,0.9-0.4c0.4-0.3,0.7-0.7,0.8-1.2s0.1-1,0.1-1.5c-0.1-1.9-0.5-3.8-1.2-5.6
		c0-0.1-0.1-0.2-0.2-0.3c-0.1-0.1-0.2-0.1-0.4-0.1c-0.9-0.1-2.4-0.6-3.3-0.2c-0.3,0.2-0.6,0.4-0.8,0.7
		C170.2,73.3,169.2,74.1,169.2,74.4z"/>
	<path class="st5" d="M168.9,73.6c0-0.9-1.1-3,0.6-3.1c0-0.9-1.3-1.5-1.1-2.5c0.1-0.3,0.4-0.6,0.4-0.9c0.1-0.9-1.6-1.5-1.3-2.4
		c0.1-0.4,0.5-0.6,0.6-0.9c0.2-0.8-1.3-1.2-1.3-2c0-0.3,0.2-0.5,0.1-0.8c0-0.4-0.3-0.6-0.5-0.9c-0.4-0.8-0.2-2-1-2.4
		c0.5,0,0.7-0.7,0.5-1.2s-0.7-0.9-0.7-1.4c0-0.2,0-0.4,0-0.6c-0.1-0.5-1-0.6-1.1-1.1c0-0.2,0-0.4,0-0.6c-0.1-0.4-0.5-0.7-0.9-0.8
		s-0.8-0.2-1.1-0.4c-0.2-0.2-0.5-0.5-0.8-0.4c-0.1,0.1-0.1,0.2-0.2,0.3c-0.3,0.4-0.9,0.2-1.3-0.1c-1.2-0.8-1.8-2.2-2-3.7
		c-0.3-1.4-0.2-2.9-0.6-4.3c-0.1-0.4-0.2-0.9-0.4-1.3c-0.1-0.4-0.6-0.9-0.6-1.3c-0.1-0.8,1.6-0.3,2.3-0.2c0.6,0.1,1.2,0.2,1.8,0.4
		s1.3,0.5,1.9,0.8c2.6,1.1,5.6,1.3,7.7,3.2c0.7,0.6,1.2,1.4,2.1,1.7c0.4,0.1,0.8,0.2,1.2,0.3c1,0.5,1.1,1.7,1.7,2.7
		c0.2,0.2,0.3,0.5,0.4,0.8c0.1,0.3,0.2,0.7,0.1,1l0.1,2.5c0.1,4.1,0.2,8.2-0.2,12.3c-0.1,1.3-0.4,2.7,0,4c0.1,0.4,0.3,0.7,0.4,1
		c0.1,0.4,0.1,0.8,0.1,1.3l0.1,1.6c0,0.1,0,0.3-0.1,0.4s-0.3,0.1-0.4,0.1c-2.2-0.2-4.5-1.4-6.5-0.7"/>
	<ellipse class="st1" cx="270" cy="192" rx="26.2" ry="3.8"/>
	
		<linearGradient id="SVGID_1_" gradientUnits="userSpaceOnUse" x1="336.3864" y1="129.6367" x2="336.3864" y2="-43.5883" gradientTransform="matrix(1 0 0 1 -84.46 66.18)">
		<stop  offset="0" style="stop-color:#808080;stop-opacity:0.25"/>
		<stop  offset="0.54" style="stop-color:#808080;stop-opacity:0.12"/>
		<stop  offset="1" style="stop-color:#808080;stop-opacity:0.1"/>
	</linearGradient>
	<path class="st13" d="M292.5,192.2c-0.5-2-0.7-3.7-0.7-3.7s0.1-2.1-0.9-3.8v-0.5l0,0v-4c0.3-0.7,0.6-1.4,1-2.1c0.7-1.2,0-5.8,0-5.8
		s-2.6-6.4-2-10.5s-5.4-18.2-5.4-18.2c0-1.4,0.2-2.7,0.6-4c0.1-0.3,0.1-0.6,0.1-0.8v-0.1l0,0c-0.1-2.7-2.2-7.7-2.2-7.7l0.3-9.6
		c0,0,1.4-5.7-0.9-13.3c-0.8-2.7-1.3-4.8-1.6-6.4c0-0.2-0.1-0.4-0.1-0.5c4.6-0.7,8.1-1.3,8.1-1.3s-2.6-11.1-4.4-13s-3.2-8-3.2-8
		s-0.9-7.8,0.6-10.1c1.5-2.3,1.7-6.2,1.7-6.2s3.4-2.5,3.9-3.6c0.4-1.1,1.1-3.6,1.1-4.9s-0.4-2.5-0.3-3.2s-1-3.3-0.4-4.6
		c0.1-0.4,0.2-0.8,0.2-1.2l0,0l0,0c0-1.1-0.1-2.2-0.3-3.3c-1-0.8-2.2-1.5-3.4-1.8l-0.1-0.3l-0.2-0.8c-0.1-0.1-0.2-0.1-0.3-0.2v-0.3
		v-1.1l0.5-2.5c1.1-4.4-4.8-5.1-4.8-5.1c-0.4-0.7-0.9-1.2-1.7-1.5c-1.2-0.4-0.2,6.6,0.4,7.1c0.4,0.4,1.7,2.5,2.3,3.6l0,0l0.1,0.2
		c-0.1,0.1-0.2,0.2-0.3,0.3l0.2,1.5v0.2c-0.4,0.5-0.7,1-0.9,1.6c0,0,1.1,1.2,0.9,2.5s0.3,3,0.4,3c-0.1-0.1-0.8-0.9-1.6-0.7
		s-2.9,0.8-2.9,0.8s-1.6,0.3-1.4,0.6s-1.1,1.9-1.1,1.9l-4.2-4c0-0.1-0.1-0.2-0.1-0.4c-0.2-0.6-0.3-1.2-0.4-1.8
		c0.5-0.1,0.9-0.3,1.4-0.4c0.4-0.2,0.8-0.4,1.2-0.8c0.4-0.5,0.5-1.2,0.7-1.8c0.3-1.2,1.1-2.3,1.6-3.5c0.9-2,1.1-4.2,0.8-6.3
		c-0.1-0.7-0.3-1.3-0.6-1.8c-0.7-0.9-1.9-1.3-2.9-2.1c-0.9-0.8-1.5-1.9-2.6-2.5c-1-0.5-2.1-0.5-3.2-0.3c-2.1,0.3-4.2,1.1-6,2.2
		c-0.6,0.4-1.3,0.8-2,0.7c-0.6-0.1-1.1-0.6-1.4-1.1c0,0,0,0,0-0.1c0,0,0,0,0-0.1c-0.4,1-0.7,2.1-0.7,3.2c0,0.2,0,0.4,0,0.5v0.2v0.1
		l0,0c0,0.1,0,0.2,0,0.2c-0.1,0.2-0.2,0.4-0.4,0.6c-0.1,0.1-0.2,0.3-0.4,0.5c0-0.1,0-0.1,0.1-0.2c-0.3,0.4-0.4,0.9-0.4,1.3
		c0,0.3,0.1,0.7,0.3,1c0.2,0.2,0.4,0.4,0.7,0.6c-0.1,0.5-0.1,0.9-0.1,1.4c0,2.9,1.5,5.5,4,7c0,0.1,0.1,0.2,0.1,0.4
		c0.5,1.4,0.9,3.1,0.8,4.6c0,0.1,0,0.2,0,0.3s-0.1,0.1-0.2,0.2l0,0c0,0-7,0.1-8.6-1.4s-4.2,3.6-4.2,3.6s-2.5,0.5-3,0
		s-3.4-0.1-3.4-0.1c-1.2-1.1-2.8-1.6-4.4-1.6c-1-0.7-2-1.3-3.2-1.8l0,0H233l0,0c-0.5-0.2-1-0.3-1.6-0.2c0,0-3.4-2.8-4.4-4.4
		c-1-1.5-5.8-7.2-5.8-7.2v-0.3l-0.1-0.8c-0.1,0-0.3,0-0.4,0c0-0.1-0.1-0.2-0.1-0.3c-0.3-0.8-0.6-1.6-1-2.3c0,0,0-1,0.3-1.3
		s-0.1-4.1-0.1-4.1s-3.1-7.2-5.9-1.8c0,0-5.2,3.5-0.8,7.6c0,0,1.8,0.9,2,1.5c0.2,0.4,0.8,1.7,1.2,2.5l0.2,0.4l0,0l0.1,0.7v0.3
		c-0.8,0.5-1.4,0.9-1.3,1.3c0.2,0.6,0.4,1.2,0.5,1.9c0,0,6.1,7.6,6.9,10.9c0,0,16.3,9.7,21.7,10.4l-0.9,4.8
		c-0.1,1.3-0.2,2.6-0.2,3.9c0.1,1-0.6,5.7-0.6,5.7s-0.9,6.9-1.7,7.9s-0.6,5.1-0.6,5.1c-0.2,2-0.5,4-1.1,5.9
		c-0.8,2.6-0.2,5.9-0.2,5.9s-2.7,6.2,3.8,2c0,0,3.2-0.2,6.9-0.3c0,0.1,0,0.2,0,0.4c0,0.5,0,1,0,1.5c0,3.6-0.1,8.5,0.1,12.2
		c0.3,6.6,2.3,19.6,2.3,19.6v6.6c-0.1,0.6-0.2,1.2-0.2,1.9c0,2.3,0.6,4.6,1.8,6.6l0.5,4.4c0,0,1.2,2.9,1.2,4.6c0,0.1,0,0.3,0,0.4
		c0,0.2-0.1,0.4-0.1,0.7c-0.1,2,1.1,6.7,1.1,6.7s0.1,4.8,0.8,5.1c0.6,0.2-0.8,2.8-1.2,3.5v-0.1l-0.1,0.1c-0.1,0.4-0.2,0.8-0.2,1.2
		c-0.1,0.7,0.2,1.3,0.8,1.7c1.4,0.8,2.1,1.5,0.9,1.8c-0.4,0.1-0.8,0.2-1.3,0.3c0-0.1,0-0.1-0.1-0.2c-0.3,0.1-0.5,0.5-0.5,0.8
		c0,0.6,0.2,1.1,0.4,1.6c1.1,2.6,1.9,3.5,1.9,3.5l0.5-0.1c-0.1,0.2-0.2,0.4-0.3,0.6c-0.2,0.3-0.5,0.5-0.8,0.7s-0.6,0.3-1,0.3
		c-0.8,0-1.5,0.4-2,1c-0.7,0.9-1.2,2.2,0.2,3.3l5.1,1.8c0,0,8.8,1.1,8.3-0.8c-0.5-2-0.8-3.7-0.8-3.7c0-1.2-0.2-2.4-0.7-3.5
		c-0.1-0.2-0.2-0.4-0.3-0.5h0.3c0,0,0.6-4.4,1.5-5.2c0.2-0.2,0.2-0.4,0.2-0.5c0.1-0.2-0.1-0.4-0.4-0.5l-0.1,0.2
		c-0.3-0.1-0.6-0.1-0.9-0.1c0,0-0.3-2.3,0.6-3.1c0.2-0.2,0.2-0.4,0.2-0.7s0-0.6-0.1-0.9c0,0,0,0,0,0.1c-0.5-2.1-2.1-5.4-2.1-5.4
		s-0.1-2.1,0.5-2.9c0.6-0.8-0.1-11.3-0.1-11.3s0.2-5.1-0.4-7.4c-0.6-2.4,0.8-5.1,0.8-5.1v-0.1l0,0l-0.1-0.8l0,0
		c-0.1-1.3-0.4-3.8-0.6-4.9c-0.3-1.6,0.1-9.2,0.1-9.2l1.3-3.3l2.3,5.6l2.4,7.5c0,0,1.2,1.6,1.2,3.2c0,0.1,0,0.2,0,0.2
		c0,0.2,0,0.3,0,0.5c0,0.9,0.2,1.9,0.7,2.7c0,0,0.6,3.5,1.6,4.4s1,2.6,1,2.6s1.2,5.1,1.8,6c0.5,0.8,0.5,2.8,0.5,3.5l0,0
		c0,0.1,0,0.2,0,0.2s0.2,1.8,0.2,3.4c0,0.2,0,0.4,0,0.5l0,0c0,0.4-0.1,0.8-0.1,1.2v0.1c0-0.1,0-0.2,0-0.3c-0.2,1-0.4,2.1-0.4,3.2
		c0,1.8,0.2,4,1.4,5.3c1.9,2.2,3.1,1.9,3.1,1.9s-0.9,2.8-2.1,3.3c0,0-0.1,0-0.1,0.1c0-0.1,0-0.1,0-0.2c-0.3,0.3-0.4,0.7-0.4,1
		c-0.1,1.2,0.7,3.2,1.4,4.1c0.3,0.3,0.6,0.5,1,0.6c-0.1,0-0.1,0.1-0.2,0.1c-0.1,0.1-0.3,0.1-0.4,0.2c-0.2,0.1-0.4,0.1-0.6,0.2
		c-0.8,0-1.5,0.4-2,1c-0.7,0.9-1.2,2.2,0.2,3.3l5.1,1.8C284.2,193,293,194.2,292.5,192.2z"/>
	<path class="st14" d="M258.9,195.5l-5-1.8c-1.4-1.1-0.9-2.4-0.2-3.3c0.5-0.6,1.2-1,2-1c0.3,0,0.7-0.2,0.9-0.3
		c0.3-0.2,0.6-0.4,0.8-0.7c0.4-0.6,0.6-1.2,0.6-1.9c0,0,5.4-1.6,6.9,0c0.3,0.3,0.5,0.6,0.7,1c0.5,1.1,0.7,2.3,0.7,3.5
		c0,0,0.3,1.7,0.7,3.7C267.4,196.6,258.9,195.5,258.9,195.5z"/>
	<path class="st14" d="M283.1,193l-5-1.8c-1.4-1.1-0.9-2.4-0.2-3.3c0.5-0.6,1.2-1,2-1c0.2,0,0.4-0.1,0.6-0.2
		c0.1-0.1,0.3-0.1,0.4-0.2c1.4-0.8,1.3-2.6,1.3-2.6s5.4-1.6,6.9,0c0.2,0.2,0.4,0.5,0.5,0.7c0.9,1.6,0.8,3.8,0.8,3.8s0.3,1.7,0.7,3.7
		C291.6,194.2,283.1,193,283.1,193z"/>
	<path class="st7" d="M264.9,186.5c0.3,0.3,0.5,0.6,0.7,1l0,0l-8.1,0.9c0.4-0.6,0.6-1.2,0.6-1.9C258,186.4,263.4,184.9,264.9,186.5z
		"/>
	<path class="st7" d="M289.7,184.7v1.5c-1.3,2.1-7.4,1.6-9.2,0.6c0.1-0.1,0.3-0.1,0.4-0.2c1.4-0.8,1.3-2.6,1.3-2.6s5.4-1.6,6.9,0
		C289.3,184.2,289.5,184.5,289.7,184.7z"/>
	<path class="st5" d="M290.6,178.1c-0.4,0.7-0.7,1.4-1,2.1v5.5c-1.4,2.3-8.6,1.5-9.6,0.3s-2-4.5-0.9-5.1s2-3.3,2-3.3
		s-1.2,0.3-3.1-1.9s-1.3-7.1-1-8.3s0-5.1,0-5.1s0.1-2.8-0.5-3.7s-1.7-6-1.7-6s0-1.7-1-2.6c-1-0.9-1.6-4.4-1.6-4.4
		c-0.6-0.9-0.8-1.9-0.7-3c0.2-1.7-1.2-3.6-1.2-3.6l-2.4-7.5l-2.2-5.6l-1.2,3.3c0,0-0.4,7.6-0.1,9.2c0.3,1.6,0.7,5.8,0.7,5.8
		s-1.4,2.8-0.8,5.1c0.6,2.4,0.4,7.4,0.4,7.4s0.6,10.5,0.1,11.3c-0.6,0.8-0.5,2.9-0.5,2.9s2.8,6.1,1.9,6.9c-0.9,0.8-0.6,3.1-0.6,3.1
		s1.9,0,1.1,0.8s-1.5,5.2-1.5,5.2l-8.4,1c0,0-0.8-1-1.9-3.5c-1.1-2.6,0.2-2.3,1.3-2.6c1.1-0.3,0.4-1-0.9-1.8
		c-1.3-0.8-0.6-2.7-0.6-2.7s2-3.4,1.3-3.7s-0.8-5.1-0.8-5.1s-1.4-5.7-1-7.2c0.3-1.5-1.1-5.2-1.1-5.2l-0.5-4.4
		c-1.5-2.5-2-5.4-1.5-8.2v-6.7c0,0-1.9-13-2.2-19.6c-0.2-4.2-0.1-10-0.1-13.6c0-2,0.1-3.3,0.1-3.3l29.9-3.1c0,0,0,1.4,0.5,4.4
		c0.3,1.6,0.8,3.8,1.5,6.4c2.1,7.6,0.8,13.3,0.8,13.3l-0.3,9.6c0,0,2.6,6.4,2.1,8.7c-0.3,1.3-0.5,2.7-0.6,4c0,0,5.9,14.1,5.3,18.2
		s1.9,10.5,1.9,10.5S291.3,176.9,290.6,178.1z"/>
	<path class="st11" d="M273.5,142l9.1-1.2C282.6,140.8,277.5,146.1,273.5,142z"/>
	<path class="st7" d="M281.3,131.9c0,0,0.3,3.2-1.7,4.4C279.6,136.4,283.2,135.8,281.3,131.9z"/>
	<path class="st7" d="M280.7,121.7c0,0-7.6,6.3-10.4,5.7S280.7,121.7,280.7,121.7z"/>
	<path class="st7" d="M262.2,145c0,0-5.8,1.3-6,3.6S262.2,145,262.2,145z"/>
	<path class="st11" d="M263.5,173.9c0,0-8.2,1.5-5.9,2.6c2.3,1,6.1,1.9,6.1,1.9S266.4,178.4,263.5,173.9z"/>
	<g class="st15">
		<path d="M256,178.1c-0.4-0.3-0.7-0.7-0.7-1.2l-0.1,0.1c0,0-0.8,1.9,0.6,2.7c0.1,0.1,0.3,0.2,0.4,0.3c0.2,0,0.5-0.1,0.8-0.1
			C258,179.6,257.3,178.9,256,178.1z"/>
		<path d="M266.5,177.5c0.2-0.2,0.2-0.7,0.1-1.4c-0.4,0.5-0.5,1.4-0.5,2C266.2,177.9,266.3,177.7,266.5,177.5z"/>
		<path d="M265.3,143.1c-0.3,0.8-0.5,1.7-0.6,2.5c0.2-0.6,0.4-1.2,0.6-1.8V143.1z"/>
		<path d="M284,139.4c0.1-0.2,0.1-0.5,0.1-0.8c-0.1,0.5-0.2,1-0.2,1.4C283.9,139.9,283.9,139.7,284,139.4z"/>
		<path d="M265.1,167.7c0.1-0.2,0.2-0.7,0.2-1.5c-0.3,0.6-0.4,1.3-0.4,1.9C264.9,168,265,167.8,265.1,167.7z"/>
		<path d="M266.8,180.8c-0.4,1.4-0.7,2.8-1,4.3l-8.4,1c0,0-0.8-1-1.9-3.5c-0.1-0.2-0.2-0.4-0.2-0.6c-0.5,0.2-0.7,0.8,0,2.3
			c1.1,2.6,1.9,3.5,1.9,3.5l8.4-1c0,0,0.6-4.4,1.5-5.2C267.4,181.1,267.1,180.9,266.8,180.8z"/>
		<path d="M255.7,168.3c0,0,0.1,4.8,0.8,5.1l0,0c0.4-0.8,0.6-1.5,0.3-1.7c-0.7-0.3-0.8-5.1-0.8-5.1s-1.4-5.7-1-7.2
			c0.3-1.5-1.1-5.2-1.1-5.2l-0.5-4.4c-1.5-2.5-2-5.4-1.5-8.2v-6.7c0,0-1.9-13-2.2-19.6c-0.2-4.2-0.1-10-0.1-13.6c0-0.6,0-1.2,0-1.7
			h-0.2c0,0,0,1.3-0.1,3.3c-0.1,3.6-0.1,9.3,0.1,13.6c0.3,6.6,2.2,19.6,2.2,19.6v6.7c-0.5,2.8,0,5.8,1.5,8.2l0.5,4.4
			c0,0,1.5,3.7,1.1,5.2C254.3,162.6,255.7,168.3,255.7,168.3z"/>
		<path d="M280.4,184.1c-0.7-1-1.1-2.1-1.3-3.3c-0.9,0.8,0.1,3.8,1.1,5s8.2,2,9.6-0.3v-1.3C287.8,186,281.3,185.3,280.4,184.1z"/>
		<path d="M290.9,176.3c-0.4,0.7-0.7,1.4-1,2.1v1c0.2-0.4,0.4-0.8,0.7-1.4C290.9,177.4,291,176.8,290.9,176.3
			C290.9,176.2,290.9,176.3,290.9,176.3z"/>
		<path d="M280.8,177.4c0.3-0.5,0.5-1.1,0.7-1.6c0,0-1.2,0.3-3.1-1.9c-1.4-1.6-1.4-4.7-1.2-6.6c-0.4,1.2-0.9,6.1,1,8.3
			C279.4,176.9,280.3,177.3,280.8,177.4z"/>
		<path d="M277.2,162c0.1,1.4,0.2,2.7,0.1,4.1c0-0.2,0.1-0.4,0.1-0.6c0.4-1.2,0-5.1,0-5.1s0.1-2.8-0.5-3.7s-1.7-6-1.7-6s0-1.7-1-2.6
			c-1-0.9-1.6-4.4-1.6-4.4c-0.6-0.9-0.8-1.9-0.7-3c0.2-1.7-1.2-3.6-1.2-3.6l-2.4-7.5l-2.2-5.6l-1.3,3.3c0,0,0,0.4,0,1.1l1-2.6
			l2.2,5.6l2.4,7.5c0,0,1.4,1.9,1.2,3.6c-0.1,1,0.1,2.1,0.7,3c0,0,0.6,3.5,1.6,4.4s1,2.6,1,2.6s1.2,5.1,1.7,6
			C277.3,159.2,277.2,162,277.2,162z"/>
	</g>
	<path class="st16" d="M283,34.6l-0.5,2.5v1.1V39l-2.9,0.3l-0.3-0.6l0,0c-0.6-1.1-1.8-3.3-2.2-3.6c-0.5-0.4-1.5-7.5-0.4-7.1
		c0.7,0.3,1.3,0.8,1.6,1.5C278.3,29.5,284,30.2,283,34.6z"/>
	<path class="st7" d="M282.5,39l-2.9,0.3l-0.3-0.6l0,0c0.8-0.9,2.1-1.1,3.2-0.5L282.5,39z"/>
	<path class="st3" d="M283.3,40.4l-3.8,0.9l-0.1-0.6l-0.2-1.5c0,0,1.5-2,3.7-0.5l0.2,0.8L283.3,40.4z"/>
	<path class="st16" d="M221.5,34.8l-4.1,2.2l-0.4-0.8c-0.4-0.8-1-2-1.1-2.5c-0.2-0.7-1.9-1.5-1.9-1.5c-4.3-4.1,0.8-7.6,0.8-7.6
		c2.7-5.4,5.7,1.8,5.7,1.8s0.4,3.8,0.1,4.1c-0.3,0.3-0.3,1.3-0.3,1.3c0.4,0.7,0.7,1.5,1,2.3C221.5,34.6,221.5,34.8,221.5,34.8z"/>
	<path class="st7" d="M221.5,34.8l-4.1,2.2l-0.4-0.8c0.6-0.5,2.6-2.1,3.3-2.1c0.3,0,0.6,0,1,0C221.5,34.6,221.5,34.8,221.5,34.8z"/>
	<path class="st3" d="M221.9,36.1l-4.6,2.3l-0.1-1l-0.1-0.7c0,0,2.6-2.3,3.4-2.2c0.4,0.1,0.8,0.1,1.2,0l0.1,0.8L221.9,36.1z"/>
	<path class="st16" d="M271.9,51.4c0,0-19.9,2.2-16.2,1c2.6-0.8,3.6-2.5,3.8-4.3c0.2-1.5-0.2-3.2-0.7-4.6c-0.5-1.3-1.1-2.5-1.8-3.6
		c0,0,15.2-8.4,12.2-0.8c-0.5,1.2-0.8,2.4-0.9,3.6c-0.1,1.2,0,2.5,0.4,3.7C269.3,48.3,270.4,50,271.9,51.4z"/>
	<path class="st7" d="M269.2,39.1c-0.5,1.2-0.8,2.4-0.9,3.6c-1.4,1.2-3,1.1-5,1.1c-1.6,0-3.3,0.4-4.5-0.4c-0.5-1.3-1.1-2.5-1.8-3.6
		C257,39.9,272.3,31.5,269.2,39.1z"/>
	
		<ellipse transform="matrix(0.2298 -0.9732 0.9732 0.2298 167.5177 283.8677)" class="st16" cx="263.1" cy="36.1" rx="8.2" ry="8.2"/>
	<path class="st7" d="M271.9,51.4c0,0-19.9,2.2-16.2,1c2.6-0.8,3.6-2.5,3.8-4.3c1-1.1,3-1.9,4.3-2.3c1.2-0.4,2.4-0.4,3.6-0.1
		c0.5,0.1,0.9,0.3,1.3,0.6C269.3,48.3,270.4,50,271.9,51.4z"/>
	<path class="st7" d="M283.3,40.4l-3.8,0.9l-0.1-0.6c0.8-1.1,2.3-1.6,3.7-1.3L283.3,40.4z"/>
	<path class="st7" d="M221.9,36.1l-4.6,2.3l-0.1-1c1.5-0.8,3-1.5,4.6-2L221.9,36.1z"/>
	<path class="st7" d="M279.8,101.6c-7.7,1.2-18.7,2.8-20.5,2.3c-1.4-0.4-6.1-0.4-10.1-0.3c0-2,0.1-3.3,0.1-3.3l29.9-3.1
		C279.3,97.2,279.2,98.5,279.8,101.6z"/>
	<path class="st12" d="M287.5,99.8c0,0-25.4,4.4-28.2,3.5s-16.7,0.1-16.7,0.1c-6.3,4.2-3.7-2-3.7-2s-0.6-3.3,0.2-5.9
		c0.5-1.9,0.9-3.9,1-5.9c0,0-0.1-4.2,0.6-5.1s1.7-7.9,1.7-7.9s0.7-4.7,0.6-5.7s0.2-3.9,0.2-3.9l0.9-4.8c-5.2-0.7-21-10.4-21-10.4
		c-0.8-3.3-6.6-10.9-6.6-10.9c-0.1-0.6-0.2-1.3-0.5-1.9c-0.4-1.1,5.8-3.3,5.8-3.3s4.6,5.7,5.6,7.2s4.3,4.4,4.3,4.4
		c0.5-0.1,1,0,1.5,0.2h0.1l0,0c1.1,0.4,2.2,1,3.1,1.8c1.6,0,3.1,0.5,4.2,1.6c0,0,2.8-0.4,3.3,0.1s2.9,0,2.9,0s2.4-5.1,4-3.6
		s8.4,1.4,8.4,1.4c0.9-1.2,3.1-2.1,4.5-2.5c1.2-0.4,2.4-0.4,3.6-0.1c0.5,0.2,1,0.4,1.4,0.7l4.1,4c0,0,1.2-1.5,1-1.9
		c-0.1-0.3,1.4-0.6,1.4-0.6s2-0.6,2.8-0.8s1.5,0.6,1.5,0.7c0-0.1-0.5-1.8-0.4-3s-0.8-2.5-0.8-2.5c2.4-6,7.9-1,7.9-1s0.6,3.3,0.1,4.5
		c-0.6,1.2,0.6,3.9,0.4,4.6c-0.1,0.7,0.3,1.9,0.3,3.2s-0.7,3.8-1.1,4.9c-0.4,1.1-3.7,3.6-3.7,3.6s-0.2,3.9-1.7,6.2
		S280,78.9,280,78.9s1.4,6.1,3.1,8C284.9,88.7,287.5,99.8,287.5,99.8z"/>
	<path class="st7" d="M250.4,54.2c0,0-0.8-2.3-1.5-2.5c-0.7-0.3-1.4-0.6-2-0.9l0.4-0.9c0,0,2.6,0.7,3,1.5
		C250.9,52.2,250.4,54.2,250.4,54.2z"/>
	<path class="st7" d="M236.5,49.1c-0.1,0.7-6.3,1.3-6.3,1.3l3.1-3.1l0,0h0.1l0,0C234.5,47.8,235.6,48.4,236.5,49.1z"/>
	<circle class="st17" cx="218.7" cy="39.6" r="0.6"/>
	<circle class="st17" cx="219.4" cy="40.7" r="0.6"/>
	<circle class="st17" cx="220.1" cy="41.8" r="0.6"/>
	<circle class="st17" cx="220.8" cy="42.9" r="0.6"/>
	<circle class="st17" cx="286.1" cy="42.8" r="0.4"/>
	<circle class="st17" cx="286.2" cy="43.8" r="0.4"/>
	<circle class="st17" cx="286.2" cy="44.9" r="0.4"/>
	<path class="st7" d="M250.5,73c-0.1-0.1,15.6,19.6,27.7,8.2C278.2,81.2,259,83.8,250.5,73z"/>
	<path class="st7" d="M241.5,83.2c0,0,9.3,0.3,10.3,2.9V89c-0.5,0.3-1.2,0.3-1.7,0c-0.9-0.5-6.6-3.4-8.6-2V83.2z"/>
	<path class="st12" d="M241.7,83.2c0,0,8.9,0.2,9.9,2.8v2.7c-0.5,0.3-1.1,0.3-1.7,0c-0.9-0.5-6.3-3.2-8.2-1.9V83.2z"/>
	<path class="st7" d="M246.6,62.9c1,2.2,2.2,4.3,3.6,6.2c1.6,2.1,3.5,4,5.7,5.5C255.9,74.6,246.8,64.2,246.6,62.9z"/>
	<path class="st7" d="M243.5,52.1c0,0,1.6,6.7,5.6,9L243.5,52.1z"/>
	<path class="st7" d="M241.2,52.8c0-0.1-1.4,5.3,5.2,8.3C246.3,61.1,243.5,60.1,241.2,52.8z"/>
	<path class="st7" d="M282,48.2c-0.1,0,3.2,2.1,4.1,3.1C286.1,51.4,283.9,48.1,282,48.2z"/>
	<path class="st14" d="M260.8,43.6c0,0.7,0.6,1.3,1.3,1.3h0.1c2.5,0.2,5.1,0.3,7.4-0.7c0.4-0.2,0.8-0.4,1.1-0.8
		c0.4-0.5,0.5-1.2,0.7-1.8c0.3-1.2,1-2.3,1.5-3.5c0.8-2,1.1-4.2,0.8-6.3c-0.1-0.7-0.3-1.3-0.6-1.8c-0.7-1-1.9-1.3-2.8-2.1
		s-1.4-1.9-2.5-2.5c-0.9-0.5-2.1-0.5-3.1-0.3c-2.1,0.3-4,1.1-5.8,2.2c-0.6,0.4-1.3,0.8-1.9,0.7c-0.6-0.1-1-0.6-1.4-1.1
		c-0.5,1.1-0.7,2.4-0.6,3.6c0,0.2,0,0.4,0,0.5c-0.1,0.2-0.2,0.4-0.4,0.6c-0.6,0.7-1,1.9-0.4,2.6c0.3,0.3,0.7,0.5,0.9,0.8
		c0.5,0.6,0.3,1.4,0.3,2.2c0,0.3,0,0.5,0.2,0.7c0.3,0.3,0.7,0.3,1,0.2c0.4-0.1,0.7-0.1,1.1-0.1c0.4,0.1,0.7,0.4,0.9,0.7
		C259.9,40.2,260.3,41.8,260.8,43.6z"/>
	<g class="st18">
		<path d="M271.1,42.8c-0.3,0.3-0.7,0.6-1.1,0.8c-2.3,1-4.9,0.9-7.4,0.7c-0.3,0-0.5-0.1-0.8-0.2c-0.4-0.2-0.5-0.7-0.6-1.1
			c-0.5-1.8-0.9-3.4-2.1-4.9c-0.2-0.3-0.6-0.6-0.9-0.7c-0.4,0-0.7,0-1.1,0.1s-0.7,0-1-0.2c-0.1-0.2-0.2-0.5-0.2-0.7
			c0-0.7,0.2-1.6-0.3-2.2c-0.3-0.3-0.7-0.5-0.9-0.8c-0.4-0.5-0.4-1.1-0.2-1.7c-0.4,0.7-0.6,1.6-0.1,2.2c0.3,0.3,0.7,0.5,0.9,0.8
			c0.5,0.6,0.3,1.4,0.3,2.2c0,0.3,0,0.5,0.2,0.7c0.3,0.3,0.7,0.3,1,0.2c0.4-0.1,0.7-0.1,1.1-0.1c0.4,0.1,0.7,0.4,0.9,0.7
			c1.2,1.5,1.6,3.1,2.1,4.9c0.1,0.4,0.3,0.8,0.6,1.1c0.2,0.1,0.5,0.2,0.8,0.2c2.5,0.2,5.1,0.3,7.4-0.7c0.4-0.2,0.8-0.4,1.1-0.8
			c0.2-0.2,0.3-0.4,0.4-0.7C271.2,42.7,271.1,42.8,271.1,42.8z"/>
		<path d="M255.1,30.8c0.1-0.1,0.2-0.3,0.3-0.4c0-0.2,0-0.4,0-0.5c-0.1-1,0.1-2,0.4-3v-0.1c-0.5,1.1-0.7,2.4-0.6,3.6
			C255.1,30.5,255.1,30.6,255.1,30.8z"/>
	</g>
	<path class="st7" d="M259.4,48.6c0,0,10.3,1.4,11.2-0.2"/>
	<path class="st7" d="M279.4,44.3c0,0,5.7,0,7,2.2"/>
	<path class="st12" d="M311.4,235.7c-1.7,1.5-3.9,2.3-6.2,2.3c-0.6,0-1.4,0.1-1.4,0.7c0,0.2,0.1,0.3,0.2,0.5
		c0.7,1.2,1.9,2.1,3.2,2.5c1.2,0.4,2.6,0.3,3.9,0.2l3.8-0.2c0.7,0,1.4-0.1,2.1-0.2s1.5-0.2,2.2-0.4c1.8-0.3,3.7-0.3,5.5-0.3
		c0.5,0,1.1,0,1.4-0.4s0.1-1,0-1.6c-0.2-1.1,0-2.2-0.2-3.3c-0.4-1.9-2-3.4-3.9-4.1c-1.7-0.6-4.7-1.4-6.3-0.3
		C314,232.4,312.9,234.3,311.4,235.7z"/>
	<path class="st5" d="M315.1,171.1c0.3,1.6,1.9,2.8,1.9,4.4c0,1.3-0.9,2.4-1.6,3.5c-0.6,1.1-1.2,2.3-1.6,3.6
		c-1.3,3.2-2.8,6.3-4.6,9.2c-0.9,1.4-1.9,2.9-1.7,4.6c0.1,0.8,0.4,1.5,0.8,2.2l2.7,5.3c0.6,1.1,1,2.2,1.4,3.3c0.2,1,0.3,2,0.4,3.1
		c0.4,3.2,1.9,6.5,1,9.6c-0.1,0.3-0.4,0.6-0.6,0.4c0.9,1.6,1.6,3.3,1.5,5.2c0,1-0.3,2,0,2.9c0.2,0.4,0.4,0.7,0.4,1.1
		c0,0.3-0.1,0.5-0.2,0.8c-0.1,0.7,0.6,1.4,1.3,1.6c0.7,0.2,1.5,0.2,2.2,0.4c1.4,0.4,2.4,1.6,3.5,2.4c1.2,0.8,2.6,1.3,4.1,1.3
		c0.2,0,0.4,0,0.6-0.1c0.2-0.2,0.3-0.4,0.3-0.7c0.1-1.3-0.4-2.7-1.5-3.5c-0.2-0.1-0.4-0.3-0.5-0.6c-0.1-0.2-0.1-0.4,0-0.6
		c0.2-2.9,0.2-5.8-0.2-8.7c-0.1-0.9-0.2-1.8-0.1-2.8c0.1-0.8,0.3-1.5,0.2-2.3c-0.1-0.8-0.5-1.5-0.7-2.2c-0.4-1.3-0.3-2.7-0.4-4.1
		c-0.1-2.4-0.6-4.7-1.2-7.1c-0.2-0.9-0.5-1.9-1.1-2.6c-0.6-0.6-1.4-1.1-1.2-1.9c0.1-0.3,0.3-0.5,0.5-0.8c0.5-0.7,0.7-1.5,0.6-2.3
		c0.5,0.1,1-0.1,1.2-0.6c4.3-2,7.8-6.1,9.3-10.6c0.1-0.3,0.2-0.7,0.4-0.9c0.4-0.6,1.1-0.8,1.7-1.1c1.9-1,3.3-2.8,4.5-4.6
		c0.7-1,1.4-2.1,1.7-3.3c0.2-0.8,0.2-1.6,0.2-2.4l0.1-4.2c0-0.3,0-0.6-0.1-0.8s-0.3-0.5-0.4-0.7c-1.2-1.2-2.7-2.1-4.4-2.4
		c-1.1-0.2-2.3-0.2-3.4-0.3c-2.2-0.2-4.4-0.9-6.6-0.7c-3.5,0.3-6.6,2.7-8.3,5.8C317,170.1,316.4,171.1,315.1,171.1z"/>
	<path class="st3" d="M295.7,144c0,0.6,0,1.3-0.3,1.9c-0.3,0.6-1,1-1.6,0.8c0.2-0.4-0.3-0.9-0.7-0.8c-0.4,0.1-0.8,0.4-1,0.8
		c-0.3,0.6-0.4,1.3-0.3,1.9c0.1,0.8,0.6,1.6,0.5,2.4c-0.1,0.7-0.6,1.4-0.3,2c0.2,0.3,0.4,0.5,0.6,0.8c0.7,0.9,0.6,2.2-0.2,3l6.7,0.1
		c-0.2,1.1,0.3,2.3,0.8,3.3c3.3,5.5,8.9,9.2,15.3,10c-0.6,0.4-0.8,1.2-0.5,1.8c0,0.1,0.1,0.1,0.2,0.2c0.5,0.5,1.5,0.5,2.2,0.1
		s1.2-0.9,1.8-1.4c1.1-0.8,2.4-1.1,3.8-1c0.8,0.1,1.7,0.4,2.5,0.4c2.5,0.1,4.6-1.7,7-2.4c1.7-0.5,3.7-0.5,5.2-1.6
		c0.6-0.5,1.1-1.2,1-2c-0.2-0.4-0.4-0.8-0.7-1.2c-0.8-1.1-1.3-2.4-1.9-3.6c-1.2-2.4-2.8-4.6-4.8-6.5c-1.5-1.3-3.1-2.5-4.8-3.6
		c-0.4-0.3-0.8-0.6-1.3-0.8c-0.6-0.3-1.2-0.4-1.8-0.7c-0.8-0.5-1.2-1.4-1.8-2.1c-1.3-1.6-3.4-2.3-5-3.5c-1.1-0.8-2.1-1.9-3.4-2.3
		c-0.6-0.2-1.3-0.2-2-0.4c-1.4-0.4-2.5-1.7-3.9-2.2c-1.1-0.4-2.4-0.3-3.5-0.4c-1.3-0.2-2.6-0.6-3.7-1.4c-0.4-0.3-0.8-0.5-1.2-0.7
		c-1.8-0.5-1.9,2.8-2.1,4C296.2,140.6,295.7,142.3,295.7,144z"/>
	<path class="st10" d="M297.5,155.3c0.3,3.3-2.2,6.4-1.4,9.6c0.2,0.7,0.4,1.3,0.6,2c0.3,1.9-0.8,3.7-1.9,5.3l-9.3,13.6
		c-0.4,0.6-0.8,1.1-1.3,1.6c-1.8,1.6-4.4,1.4-6.8,1.9c-1.6,0.3-3.2,1-4.5,2c-0.1,0.1-0.2,0.3-0.1,0.4c0.8,1.1,2.1,1.7,3.4,1.6
		c0.2,0.3,0,0.8-0.3,1c-0.5,0.4-1.2,0.4-1.3,1.3c0,0.3,0,0.6,0.2,0.9c0.4,0.6,1,1,1.6,1.1c3.2,1,6.7-0.7,9.1-3.1
		c2.4-2.3,4.1-5.3,6.5-7.7c1.3-1.3,2.8-2.5,4.1-3.7c2.7-2.6,4.8-5.7,6.8-8.8c0.6-0.9,1.2-1.9,1.5-3s0.1-2.2,0.4-3.2
		c0.4-1.4,1.4-2.5,2.2-3.6c1.6-2.3,2.7-5,2.5-7.8s-1.9-5.6-4.6-6.5c-0.8-0.3-1.7-0.4-2.6-0.2c-1.1,0.3-1.9,1.2-2.6,2.1l-1.8,2
		c-0.4,0.5-0.8,1-1,1.6s-0.1,1.3,0.4,1.7"/>
	<path class="st3" d="M302.2,141.9c-1.2,0.1-2.6,0.2-3.4,1.1c-0.4,0.4-0.7,0.9-0.9,1.4c-0.8,1.7-1.7,3.5-1.7,5.4
		c0,1.5,0.4,3,0.6,4.5c0.2,1.2-0.3,2.5-0.4,3.8c1.5-0.5,3.5-1.1,4.9-1.9c0.9-0.5,1.8-1.1,2.9-1.5c1.5-0.5,3.9,0.4,5.3,1
		c0.1-1-0.7-2.7-0.6-3.6c0-0.4,0.1-0.8,0.2-1.2c0.2-0.4,0.5-0.8,0.7-1.2c1.1-1.8,0.9-4-0.4-5.6c-1.2-1.4-3.2-1.9-5-2.1
		c-1.2-0.1-2.3-0.2-3.5-0.1"/>
</g>
</svg>
