<?xml version="1.0" encoding="utf-8"?>
<!-- Generator: Adobe Illustrator 23.1.1, SVG Export Plug-In . SVG Version: 6.00 Build 0)  -->
<svg version="1.1" id="baed4b18-14ee-447f-bd84-b0265ca0ad8a"
	 xmlns="http://www.w3.org/2000/svg" xmlns:xlink="http://www.w3.org/1999/xlink" x="0px" y="0px" viewBox="0 0 360 230"
	 style="enable-background:new 0 0 360 230;" xml:space="preserve">
<style type="text/css">
	.st0{fill:#85848B;}
	.st1{fill:#504F60;}
	.st2{opacity:0.2;enable-background:new    ;}
	.st3{fill:#00D1B2;}
	.st4{fill:#514E7F;}
	.st5{fill:#464353;}
	.st6{fill:#A1616A;}
	.st7{opacity:0.1;enable-background:new    ;}
	.st8{fill:#33323D;}
	.st9{fill:#8DD070;}
	.st10{fill:#FBBEBE;}
	.st11{opacity:5.000000e-02;enable-background:new    ;}
	.st12{fill:#3F3D56;}
	.st13{fill:url(#SVGID_1_);}
	.st14{fill:#2D293D;}
	.st15{opacity:5.000000e-02;}
	.st16{fill:#FFCDD3;}
	.st17{fill:#575988;}
	.st18{opacity:0.1;}
</style>
<title>wallet</title>
<g>
	<rect x="5" y="225.6" class="st0" width="350" height="2.6"/>
	<path class="st1" d="M282.3,180.4c0,2-11.5,7.7-25.1,7.7c-13.6,0-24.2-5.7-24.2-7.7s11-1.3,24.7-1.3
		C271.3,179.1,282.3,178.5,282.3,180.4z"/>
	<path class="st2" d="M282.3,180.4c0,2-11.5,7.7-25.1,7.7c-13.6,0-24.2-5.7-24.2-7.7"/>
	<path class="st3" d="M145.1,144.3c2.2,0.3,4.5,0.5,6.6-0.2c0.3-0.1,0.7-0.3,0.7-0.7c0-0.1-0.1-0.2-0.2-0.3c-0.8-1.2-1.5-2.5-2-3.8
		c0-0.1-0.1-0.1-0.1-0.2c-0.1,0-0.1,0-0.2,0c-1,0.3-1.8,0.9-2.8,1.2c-0.5,0.1-1,0.2-1.5,0.1c-0.4-0.1-1-0.4-1.4-0.4
		C144.4,141.5,144.9,142.8,145.1,144.3z"/>
	<path class="st3" d="M186.9,140.6c1.5-1,3-2.1,3.8-3.6c0.1-0.1,0.1-0.2,0.1-0.3c0-0.1-0.1-0.2-0.1-0.3c-0.8-1.3-1.9-2.4-3.1-3.4
		c-0.6,0.5-1.2,1-1.7,1.6c-0.4,0.4-1.4,1-1.4,1.6c0,0.3,0.4,0.7,0.6,1c0.2,0.4,0.5,0.7,0.7,1.1C185.9,138.5,187,140.6,186.9,140.6z"
		/>
	<path class="st4" d="M153.8,148.8c0,0.3-0.1,0.7-0.3,1c-0.2,0.2-0.3,0.3-0.6,0.3c-3.1,1.1-6.7-0.3-9.8,0.8
		c-0.6,0.2-1.2,0.5-1.9,0.8c-0.8,0.2-1.5,0.4-2.3,0.4c-1.1,0.1-2.2,0.2-3.3,0.2c-0.8,0.1-1.7,0-2.5-0.2c-0.8-0.2-1.5-0.8-1.9-1.5
		c-0.2-0.3-0.2-0.7-0.1-1.1c0-0.1,0.1-0.2,0.2-0.3c0.2-0.2,0.5-0.4,0.7-0.6l1.1-0.7c0.5-0.4,1.1-0.7,1.7-0.9
		c0.5-0.1,0.9-0.2,1.4-0.3c1.6-0.5,2.8-1.7,4-3l1.5-1.7c0.1-0.2,0.3-0.3,0.5-0.4c0.2-0.1,0.4-0.1,0.7-0.1c1.5,0.1,3,0.6,4.2,1.4
		c0.3,0.2,0.7,0.4,1,0.6c0.9,0.4,2.1,0.1,2.9-0.4c0.4-0.2,0.3-0.3,0.5-0.7s0.6-0.6,0.9-0.3c0.1,0.1,0.2,0.3,0.2,0.4
		c0.3,1.1,0.2,2.3,0.2,3.4c0,0.2,0,0.4,0.1,0.5c0.1,0.2,0.2,0.3,0.3,0.5c0,0,0,0.1,0.1,0.1C153.8,147.7,153.8,148.2,153.8,148.8z"/>
	<path class="st5" d="M153.8,148.8c0,0.3-0.1,0.7-0.3,1c-0.2,0.2-0.3,0.3-0.6,0.3c-3.1,1.1-6.7-0.3-9.8,0.8
		c-0.6,0.2-1.2,0.5-1.9,0.8c-0.8,0.2-1.5,0.4-2.3,0.4c-1.1,0.1-2.2,0.2-3.3,0.2c-0.8,0.1-1.7,0-2.5-0.2c-0.8-0.2-1.5-0.8-1.9-1.5
		c-0.2-0.3-0.2-0.7-0.1-1.1c0-0.1,0.1-0.2,0.2-0.3c0.2,0.4,0.3,0.9,0.4,1.1c0.3,0.5,0.8,0.9,1.4,1c0.5,0,0.9,0,1.3-0.2
		c2.8-0.7,5.8-0.7,8.5-1.8c0.9-0.4,1.8-0.8,2.8-1.1c1-0.2,2-0.2,3-0.2c1.6-0.1,3.1-0.6,4.7-0.9C153.8,147.7,153.8,148.2,153.8,148.8
		z"/>
	<path class="st4" d="M194,140.4c-0.1,1.2-0.9,2.2-1.7,3c-0.8,0.9-1.7,1.6-2.4,2.6c-0.8,1.2-1.2,2.7-2.2,3.8c-0.4,0.4-0.8,0.7-1.3,1
		c-0.5,0.3-1.1,0.6-1.7,0.8c-1.6,0.5-3.2,0.4-4.9,0.3c-0.5,0-1-0.1-1.5-0.3c-0.2-0.1-0.4-0.2-0.6-0.4c-0.4-0.3-0.7-0.6-1-1
		c-0.1-0.2-0.2-0.5-0.1-0.7c0.1-0.3,0.3-0.5,0.5-0.7c0.4-0.4,0.8-0.7,1.2-1.1c0.6-0.4,1.1-0.8,1.5-1.3c0.3-0.4,0.5-0.9,0.6-1.3
		c0.2-0.8,0.4-1.7,0.4-2.6c0-0.6,0.1-1.1,0.2-1.7c0.2-0.9,0.9-1.7,0.8-2.6c0-0.1,0-0.3,0-0.4c0.1-0.1,0.2-0.2,0.3-0.2
		c0.5-0.2,1-0.3,1.6-0.4c0.6,0,1.1,0.2,1.5,0.6c0.2,0.3,0.4,0.7,0.7,0.8c0.2,0,0.3,0.1,0.5,0c0.8-0.1,1.7-0.2,2.3-0.7
		c0.6-0.5,1-1.3,1-2.1c0-0.3-0.1-0.6,0.3-0.7c0.4,0,0.6,0.3,0.8,0.6c0.7,0.9,1.3,1.8,1.6,2.8c0.1,0,0.2-0.1,0.3-0.1
		c0.4,0,0.8,0.2,1.1,0.5C194,139.4,194.1,139.9,194,140.4z"/>
	<path class="st5" d="M194,140.4c-0.1,1.2-0.9,2.2-1.7,3c-0.8,0.9-1.7,1.6-2.4,2.6c-0.8,1.2-1.2,2.7-2.2,3.8c-0.4,0.4-0.8,0.7-1.3,1
		c-0.5,0.3-1.1,0.6-1.7,0.8c-1.6,0.5-3.2,0.4-4.9,0.3c-0.5,0-1-0.1-1.5-0.3c-0.2-0.1-0.4-0.2-0.6-0.4c-0.4-0.3-0.7-0.6-1-1
		c0.3-0.2,0.7-0.2,1-0.2c0.7,0,1.2,0.7,1.9,0.9c1,0.3,2-0.4,3-0.6c0.7-0.2,1.3-0.1,2-0.3c0.5-0.2,1-0.5,1.5-0.9
		c0.6-0.4,1.1-0.9,1.6-1.5c0.4-0.6,0.7-1.2,0.9-1.8c0.5-1.2,1.1-2.4,1.9-3.5c0.1-0.2,0.2-0.3,0.4-0.5c0.2-0.1,0.3-0.2,0.5-0.4
		c0.7-0.5,0.9-1.3,1.2-2.1c0.1-0.2,0.2-0.5,0.3-0.7c0.4,0,0.8,0.2,1.1,0.5C194,139.4,194.1,139.9,194,140.4z"/>
	<path class="st6" d="M124.1,36.5c0.8,0.6,1.5,1.4,2,2.3c0.5,0.9,3.2,8,3,9c0.9-0.9,4.3-1,5.2-1.9c0.4-0.4,2.4-2.2,2.7-2.6
		c0.3-0.4,2.5-1.3,2.8-1.8c0.9-1.6-6.5-7.8-5.5-9.4c0.1-0.1,0.1-0.2,0.1-0.3c0-0.1-0.1-0.1-0.1-0.2c-0.6-0.6-1.4-1-2.1-1.5
		c-0.7-0.5-1.4-1.1-1.6-1.9c-0.7,0.3-1.3,0.7-1.9,1.3c-1.4,1.2-2.7,2.3-4,3.5c-0.5,0.5-1.5,1.1-1.7,1.8
		C122.5,35.5,123.6,36.1,124.1,36.5z"/>
	<path class="st4" d="M136,33.8c-1.1,0.8-2.2,1.6-3.2,2.6c-0.9,0.9-1.8,2-2,3.2c-0.1,0.5-0.1,1-0.2,1.5c-0.3,2.2-2.2,3.8-3.1,5.8
		c-0.2,0.6-0.4,1.3-0.5,2c-0.2,1.3-0.4,2.5-0.4,3.8c0,1.2,1.2,2.1,1.6,3.3c0.4,1.2,0.6,2.4,0.8,3.5c0.4,2.2,1.2,4.4,2,6.6
		c1.6,4.5,7,17.1,8.6,21.6c5-1.3,18.5-4.2,22.9-6.8c1.5-0.9-10.3-10.9-8.7-11.6c0.3-0.1,0.5-0.4,0.5-0.7c0-0.1,0-0.1,0-0.2
		c-1.6-7-6.6-12.7-8.8-19.4c-0.8-2.4-2.2-4.4-3.3-6.6c-1-2-1.5-4.3-2.6-6.2c-0.2-0.4-0.5-0.8-0.8-1.1c-0.3-0.2-0.6-0.4-0.9-0.6
		C137.2,34.3,136.6,34.2,136,33.8z"/>
	<circle class="st6" cx="124.3" cy="27.8" r="7.9"/>
	<path class="st5" d="M132.4,31.5c0.8-0.7,2-0.9,3-0.4c0.5,0.3,1,0.8,0.9,1.4l3.9,0.1c0.6,0,1.2,0,1.9,0.2c0.6,0.1,1.2,0.5,1.5,1
		c0,0.1,0.1,0.1,0.2,0.2c0.1,0,0.1,0,0.2-0.1c0.6-0.3,1.3-0.4,1.9-0.3c2.1,0.1,4.1,1.2,5.7,2.5c0.3,0.2,0.5,0.5,0.7,0.8
		c0.1,0.4,0,1,0.3,1.3c0,3.7,1.3,7.1,2.1,10.7c0.2,0.6,0.8,1.2,1.2,1.7c0.5,0.6,1,1.2,1.3,1.9c0.7,1.9-0.3,4,0.4,5.9
		c0.3,0.8,0.9,1.4,1.3,2.1c0.6,0.8,1,1.7,1.1,2.7c0,0.4,0,0.9,0,1.3c0,0.6,0.2,1.2,0.3,1.8c0.3,1.1,0.6,2.2,0.9,3.2
		c0.5,1.7,1.2,3.6,2.7,4.5c-3.8,0.6-7.7,1.3-11.3,0c-0.5-0.2-1-0.4-1.4-0.7c-1.3-0.9-1.9-2.5-2.5-4c-0.6-1.7-1.3-3.4-1.4-5.1
		c0-0.6-0.1-1.1-0.2-1.7c-0.4-1-1.3-1.6-2.2-2.1c-1-0.5-1.9-1.2-2.7-2.1c-0.8-0.8-1.2-2-1.1-3.1c0.1-0.6,0.3-1.1,0.3-1.6
		c0-0.6-0.2-1.2-0.8-1.3c-2.7-0.8-4-4.1-4.6-6.8c-0.3-1.4-0.4-2.9-0.4-4.4l0-2.8c-0.8-0.7-1.2-1.7-1.2-2.7c0-0.3,0-0.6,0-0.9
		c-0.1-0.4-0.3-0.7-0.6-1C133.3,33,132.8,32.3,132.4,31.5z"/>
	<path class="st5" d="M124,40.5c-0.1,0.9,0.1,1.8-0.1,2.6c-0.1,0.3-0.2,0.7-0.3,1c-0.3,1.2-0.2,2.5,0.4,3.7c0.5,1.2,1.2,2.3,1.9,3.3
		c0.2,0.4,0.5,0.7,0.6,1.1c0.1,0.4,0.2,0.9,0.2,1.3c0.2,1.8,0.5,3.5,0.9,5.2c0.4,1.5,4.6,14.3,5.6,15.4c0.2,0.3,0.5,0.4,0.8,0.5
		c0.2,0,0.4,0,0.6-0.1l2-0.8c0.2-0.1,0.3-0.1,0.5-0.3c0.2-0.2,0.3-0.5,0.3-0.8c0.1-1.6-4.1-14.5-4.6-16c-1.6-4.6-3.8-9.1-4.9-13.9
		c-0.3-1.3-0.5-3.4-1.4-4.5c-0.4-0.4-0.3-0.3-0.8,0c-0.2,0.1-0.5,0.2-0.7,0.4C124.4,39.2,124,39.8,124,40.5z"/>
	<path class="st5" d="M162.4,69.4"/>
	<path class="st3" d="M130,49.3c0.5,2.8,1.1,5.7,1.6,8.5l7.8-2.1c0.1-0.8-0.4-1.6-0.7-2.3c-0.7-1.8-0.7-3.8-1.3-5.6
		c-0.4-1.4-1.2-2.7-1.6-4.1c-0.2-0.8-0.4-1.7-0.6-2.5c-0.3-0.8-0.6-1.6-0.9-2.4c-0.4-1.1-1-2.2-1.7-3.2c-1,0.4-2.1,0.8-2.6,1.7
		c-0.3,0.5-0.5,1.1-0.5,1.7c-0.1,1.8,0.5,3.5,0.3,5.3C129.7,46,129.7,47.7,130,49.3z"/>
	<path class="st5" d="M139.6,87.1c0.4,1.7-0.2,3.4-0.7,5.1c-0.8,2.5-1.3,5-1.6,7.6c0,0.7-0.2,1.3-0.4,1.9c-0.2,0.6-0.7,1-1,1.6
		c-0.8,1.4-0.8,3.1-0.6,4.7c0.1,1.1,0.3,2.1,0.5,3.1c0.3,1.3,0.6,2.6,0.2,3.8c0.6-0.1,1,0.7,1,1.3c0,0.6-0.2,1.3,0.1,1.9
		c0.8,0.3,0.8,1.3,0.8,2.2c0,1.4,0.2,2.8,0.5,4.2c1.2,5.6,2.4,11.1,3.7,16.7c2.8,0.9,6.1,1.8,8.8,0.6c0.5-0.2,1-0.6,1.1-1.1
		c0-0.3,0-0.6-0.1-0.9l-1.3-4.6c-0.3-1.1-0.6-2.3-0.5-3.4c0.1-0.9,0.5-1.8,0.1-2.5c-0.1-0.3-0.4-0.5-0.5-0.7c-0.7-1-0.3-2.3-0.3-3.5
		c0-0.3,0-0.5-0.1-0.8c-0.1-0.3-0.2-0.6-0.4-0.9c-1.1-2-1.6-4.3-1.5-6.6c0-0.3,0-0.6-0.1-0.9c-0.1-0.1-0.2-0.2-0.2-0.4
		c0-0.2,0-0.4,0.1-0.6c-0.4-0.3-0.7-0.6-1-1c0.7-0.4,0.9-1.3,0.5-2c-0.1-0.1-0.1-0.2-0.2-0.3c0.4-0.1,0.7-0.5,0.6-0.9
		c0-0.2-0.1-0.3-0.2-0.4c-0.2-0.1-0.4-0.2-0.5-0.3c-0.2-0.2,0-0.6,0.1-0.9l0.8-1.4c0.6-1,0.7-2.3,1.3-3.3c0.9-1.5,1.5-3.1,2.1-4.7
		l2.2-6.2l1.5,1.3c0.5,0.4,0.9,0.9,1.2,1.4c0.2,0.5,0.4,1.1,0.4,1.7c0.6,3.4,2.7,6.3,3.5,9.6c0.2,0.7,0.3,1.5,0.7,2.1
		c0.2,0.2,0.3,0.4,0.4,0.6c0.1,0.3,0.2,0.7,0.2,1c0.1,1.4,0.9,2.6,2,3.4c0.7,0.5,1.7,0.9,2.1,1.7c0.1,0.2,0.2,0.5,0.3,0.7
		c0.4,0.4,1.1,0.5,1.3,1c0.1,0.3-0.1,0.7,0.1,0.9c0.1,0.1,0.2,0.2,0.4,0.3l2.2,1.1c2.4,1.2,3.7,4,5.5,6c0.6,0.7,1.2,1.4,1.6,2.2
		c0.8,1.4,1.1,3.1,2.4,4c0.4,0.2,0.7,0.4,0.9,0.7c0.4,0.5,0.3,1.3,0.3,2c0,0.7,0.6,1.5,1.2,1.3c-0.2,0.8-0.2,1.7,0,2.5
		c2.8-0.1,5.5-1.2,7.7-3.1c0.6-0.6,1.2-1.3,1.3-2.1c0-0.1,0-0.3-0.1-0.4c-0.1-0.2-0.3-0.3-0.5-0.4c-2-1.1-2.6-3.7-3.7-5.7
		c-0.9-1.8-2.2-3.4-3.3-5.1c-2.4-3.7-4.1-8.1-7.7-10.5c-0.8-0.5-1.7-1-2.1-1.9c-0.2-0.5-0.3-1.1-0.4-1.6c-0.2-0.5-0.6-1-1.1-1
		c0.3-0.7,0.2-1.6,0.3-2.4c0-0.4,0-0.7-0.1-1c-0.1-0.4-0.3-0.7-0.5-1c-1-1.6-1.4-3.5-1.4-5.3c0-1,0.2-2-0.1-2.9
		c-0.1-0.5-0.4-0.9-0.6-1.3c-0.3-0.8-0.4-1.7-0.4-2.5l-0.2-3.2c0-1.1-0.2-2.1-0.4-3.2c-0.7-2.5-1.3-12.9-3.6-14.1
		c-2.3-1.2-6.2,6.8-8.8,7c-1.1,0-2.3,0.3-3.3,0.6c-1.7,0.6-3.1,1.8-4.5,3l-4.7,4C141.6,85.7,140.7,86.5,139.6,87.1z"/>
	<path class="st5" d="M116.9,19c1-1.4,2.8-2.2,4.6-2.2c1.8-0.1,3.5,0.5,5.1,1.3c0.5,0.3,1,0.5,1.5,0.6c0.8,0.2,1.8-0.1,2.5,0.3
		c1,0.5,1.2,1.9,1.1,3c-0.1,1.1-0.3,2.4,0.3,3.3c0.2,0.3,0.4,0.6,0.6,0.9c0.3,0.6,0.1,1.2,0,1.9c-0.4-0.3-0.6-0.8-1-1.2
		c-0.3-0.4-1-0.6-1.4-0.4c-0.4,0.3-0.4,0.8-0.4,1.3s-0.1,1-0.6,1.2c-0.4,0.1-0.8-0.1-1-0.4c-0.8-0.9-0.5-2.4-1.2-3.4
		c-0.4-0.5-1.1-0.8-1.5-1.4c-0.3-0.4-0.4-1-0.7-1.5s-0.9-0.8-1.3-0.5c-0.1,0.1-0.3,0.3-0.4,0.5c-0.5,0.8-1.6,1.1-2.4,0.7
		c-0.3-0.2-0.7-0.4-1.1-0.5c-0.5,0-1,0.2-1.2,0.7c-0.2,0.4-0.4,0.9-0.3,1.4c0,0.7,0.1,1.4-0.3,1.9c-0.1,0.2-0.3,0.4-0.5,0.5
		c-0.6,0.4-1.3,0.6-1.8,0.2c-0.4-0.3-0.5-0.8-0.4-1.3c0.1-0.5,0.2-0.9,0.4-1.4c0.3-1-0.1-2.2,0.2-3.2
		C115.9,20.6,116.4,19.8,116.9,19z"/>
	<path class="st3" d="M121.2,42.6c-0.1,0.2,0,0.5,0.1,0.7c0.1,0.2,0.2,0.3,0.4,0.4c1.1,0.7,2.4,1.1,3.7,1.2c0.2,0,0.4,0,0.5,0.1
		c0.3,0.2,0.3,0.7,0.2,1c-0.2,0.3-0.2,0.7-0.2,1.1c0.1,0.7,0.9,1,1.6,1.1c1,0.1,2,0.1,2.8-0.6c0.5-0.5,0.9-1.1,1.2-1.7
		c1.9-4.4,2.6-9.3,4.5-13.6c0.1-0.3,0.2-0.6,0.3-0.9c0-0.3-0.1-0.6-0.4-0.8c-0.4-0.2-0.9-0.1-1.2-0.4c-0.1-0.2-0.1-0.4-0.2-0.6
		c-0.2-0.4-0.8-0.3-1.2-0.6c-0.3-0.2-0.5-0.5-0.9-0.6c-0.3,0-0.7,0.1-0.9,0.4c-1.1,1.1-1.7,2.6-2.4,4c-1,2.2-2.1,4.3-3.4,6.3
		c0.2-0.2-0.7-2-1.1-2.1c-0.6-0.1-1.4,0.9-1.7,1.3C122,39.5,121.4,41,121.2,42.6z"/>
	<path class="st7" d="M133.3,29.2c-0.5,0-0.9,0.2-1.2,0.6c-0.4,0.5-0.4,1.1-0.5,1.7c-0.3,1.9-1,3.7-2,5.3"/>
	<path class="st7" d="M135,30.6c-0.7,0-1.3,0.4-1.6,1c-0.2,0.5-0.4,1.1-0.4,1.6c-0.3,1.3-0.8,2.4-1.6,3.5"/>
	<path class="st8" d="M214.2,95.8v-4.1c0-6.3-5.1-11.5-11.5-11.5H39.2c-6.3,0-11.5,5.1-11.5,11.5v7.6L214.2,95.8z"/>
	<path class="st9" d="M84.7,75.3c0,0-0.5,29,4.7,38.5c5.1,9.5,7.3,51,7.3,51s53.8,5.6,91.3-6.7s117.3-17.2,117.3-17.2l-13.5-90.7
		c0,0-66.5-4.3-104.3,13.8S84.7,75.3,84.7,75.3z"/>
	<path class="st7" d="M84.7,75.3c0,0-0.5,29,4.7,38.5c5.1,9.5,7.3,51,7.3,51s53.8,5.6,91.3-6.7s117.3-17.2,117.3-17.2l-13.5-90.7
		c0,0-66.5-4.3-104.3,13.8S84.7,75.3,84.7,75.3z"/>
	<path class="st9" d="M96.6,85.8c0,0-1.7,23.9,2.5,31.5c4.2,7.6,4.4,41.7,4.4,41.7s48.4,2.2,82.9-9.5s106.9-19.3,106.9-19.3
		l-8.2-74.1c0,0-59.9-0.6-94.9,15.9S96.6,85.8,96.6,85.8z"/>
	<ellipse transform="matrix(0.9923 -0.1236 0.1236 0.9923 -12.0777 23.872)" class="st7" cx="186.4" cy="109.3" rx="12.6" ry="27"/>
	<path class="st2" d="M255.5,6c0,0-64.6,16.3-95,45.1S65.9,93.5,65.9,93.5s8.4,27.7,16.3,35.2c7.8,7.5,22.6,46.3,22.6,46.3
		s52.9-11.2,84.9-34.4s106.4-52.4,106.4-52.4L255.5,6z"/>
	<path class="st9" d="M65,89.3c0,0,8.4,27.7,16.2,35.2s22.6,46.3,22.6,46.3s53-11.2,84.9-34.4S295.1,84,295.1,84L254.5,1.9
		c0,0-64.6,16.3-95,45.1S65,89.3,65,89.3z"/>
	<path class="st7" d="M65,89.3c0,0,8.4,27.7,16.2,35.2s22.6,46.3,22.6,46.3s53-11.2,84.9-34.4S295.1,84,295.1,84L254.5,1.9
		c0,0-64.6,16.3-95,45.1S65,89.3,65,89.3z"/>
	<path class="st9" d="M79.5,95.8c0,0,5.7,23.3,12.1,29.2s17,38.3,17,38.3s46.8-12.7,76-34.5s95.8-51.2,95.8-51.2L249.9,9.6
		c0,0-57.2,17.8-85.4,44.2S79.5,95.8,79.5,95.8z"/>
	<ellipse transform="matrix(0.9065 -0.4221 0.4221 0.9065 -22.1123 81.1446)" class="st7" cx="172.2" cy="90.5" rx="12.6" ry="27"/>
	<path class="st7" d="M218.6,99.8v115c0,5.5-4.5,9.9-9.9,9.9c0,0,0,0,0,0H37.6c-5.5,0-9.9-4.5-9.9-9.9V88.2c4.9,1.8,4.9,1.8,9.9,1.7
		h171.1C214.2,89.9,218.6,94.3,218.6,99.8z"/>
	<path class="st1" d="M218.6,101.3v115c0,5.5-4.5,9.9-10,9.9H37.6c-5.5,0-9.9-4.5-9.9-9.9V89.7c4.9,1.8,4.9,1.8,9.9,1.7h171.1
		C214.2,91.3,218.6,95.8,218.6,101.3z"/>
	<path class="st7" d="M218.2,143.8v36.8h-35.7c-10.2-0.1-18.3-8.5-18.1-18.6c0.1-10,8.2-18,18.1-18.1H218.2z"/>
	<path class="st8" d="M218.6,142.8v36.8H183c-10.2-0.1-18.3-8.5-18.1-18.6c0.1-10,8.2-18,18.1-18.1L218.6,142.8z"/>
	<circle class="st7" cx="184.7" cy="162.2" r="7.2"/>
	<circle class="st3" cx="185.2" cy="161.2" r="7.2"/>
	<path class="st10" d="M280.6,142.5c0.3,3.1-2,6.1-1.4,9.1c0.1,0.6,0.4,1.3,0.5,1.9c0.3,1.8-0.8,3.5-1.8,5l-8.7,12.8
		c-0.3,0.6-0.8,1.1-1.2,1.5c-1.7,1.5-4.2,1.3-6.4,1.8c-1.5,0.3-3,1-4.3,1.9c-0.1,0.1-0.1,0.3,0,0.4c0.7,1,1.9,1.6,3.2,1.5
		c0.2,0.3,0,0.7-0.3,1c-0.5,0.3-1.1,0.4-1.2,1.2c0,0.3,0,0.6,0.2,0.8c0.4,0.5,0.9,0.9,1.5,1.1c3,0.9,6.3-0.7,8.6-2.9
		c2.3-2.2,3.9-5,6.1-7.3c1.2-1.2,2.6-2.3,3.9-3.5c2.5-2.4,4.5-5.3,6.4-8.3c0.6-0.9,1.1-1.8,1.4-2.8c0.2-1,0.1-2.1,0.4-3
		c0.4-1.3,1.3-2.3,2.1-3.4c1.6-2.1,2.6-4.7,2.4-7.4c-0.2-2.6-1.8-5.2-4.3-6.1c-0.8-0.3-1.6-0.4-2.4-0.1c-1,0.3-1.8,1.2-2.5,2
		l-1.7,1.9c-0.4,0.4-0.7,0.9-1,1.5c-0.2,0.6-0.1,1.2,0.3,1.6"/>
	<path class="st11" d="M280.6,142.5c0.3,3.1-2,6.1-1.4,9.1c0.1,0.6,0.4,1.3,0.5,1.9c0.3,1.8-0.8,3.5-1.8,5l-8.7,12.8
		c-0.3,0.6-0.8,1.1-1.2,1.5c-1.7,1.5-4.2,1.3-6.4,1.8c-1.5,0.3-3,1-4.3,1.9c-0.1,0.1-0.1,0.3,0,0.4c0.7,1,1.9,1.6,3.2,1.5
		c0.2,0.3,0,0.7-0.3,1c-0.5,0.3-1.1,0.4-1.2,1.2c0,0.3,0,0.6,0.2,0.8c0.4,0.5,0.9,0.9,1.5,1.1c3,0.9,6.3-0.7,8.6-2.9
		c2.3-2.2,3.9-5,6.1-7.3c1.2-1.2,2.6-2.3,3.9-3.5c2.5-2.4,4.5-5.3,6.4-8.3c0.6-0.9,1.1-1.8,1.4-2.8c0.2-1,0.1-2.1,0.4-3
		c0.4-1.3,1.3-2.3,2.1-3.4c1.6-2.1,2.6-4.7,2.4-7.4c-0.2-2.6-1.8-5.2-4.3-6.1c-0.8-0.3-1.6-0.4-2.4-0.1c-1,0.3-1.8,1.2-2.5,2
		l-1.7,1.9c-0.4,0.4-0.7,0.9-1,1.5c-0.2,0.6-0.1,1.2,0.3,1.6"/>
	<path class="st12" d="M287.2,221.6c-1.9,1.2-4.3,1.2-6.5,1c-0.4,0-0.8-0.1-1,0.2c-0.3,0.4,0.1,1,0.5,1.3c1.3,1,2.8,1.6,4.5,1.8
		c1.4,0.2,2.9,0.3,4.4,0.3c4,0.1,8,0.1,11.9-0.4c0.2,0,0.5-0.1,0.7-0.2c0.3-0.2,0.4-0.4,0.5-0.8c0.3-1-0.3-2.1-1-2.8
		c-0.8-0.7-1.8-1.1-2.8-1.5l-3.5-1.4c-0.8-0.3-2.1-1.2-3-1.1C290.1,218.2,288.6,220.8,287.2,221.6z"/>
	<path class="st11" d="M287.2,221.6c-1.9,1.2-4.3,1.2-6.5,1c-0.4,0-0.8-0.1-1,0.2c-0.3,0.4,0.1,1,0.5,1.3c1.3,1,2.8,1.6,4.5,1.8
		c1.4,0.2,2.9,0.3,4.4,0.3c4,0.1,8,0.1,11.9-0.4c0.2,0,0.5-0.1,0.7-0.2c0.3-0.2,0.4-0.4,0.5-0.8c0.3-1-0.3-2.1-1-2.8
		c-0.8-0.7-1.8-1.1-2.8-1.5l-3.5-1.4c-0.8-0.3-2.1-1.2-3-1.1C290.1,218.2,288.6,220.8,287.2,221.6z"/>
	<path class="st5" d="M289.6,175.5c-1.4,1.9-2.9,4.1-2.6,6.5c0.2,1.3,0.9,2.4,1.4,3.6c0.7,1.6,1.1,3.3,1.5,5.1
		c0.5,2.5,1.1,5,1.4,7.6c0.4,2.9-1.4,11.2-1.6,14.1c0,0.7-0.1,1.5-0.6,2c-0.2,0.2-0.4,0.4-0.5,0.6c-0.1,0.3,0,0.5,0.1,0.7
		c0.8,1.8,2.5,3.2,4.3,4c1.9,0.8,6.3,2.1,8.4,2.2c0.3,0,0.5,0,0.8-0.1c0.3-0.2,0.5-0.4,0.6-0.7c1.5-2.8,0.1-12.6,0.1-15.8
		c0-2.6,0.6-5.2,0.5-7.8c-0.1-2.1-0.7-4.1-0.9-6.2c-0.3-3.4,0.3-6.9,0.9-10.2c0.5-2.6,1-5.2,1.6-7.7c0.4-1.6,0.8-3.1,1.7-4.5
		c0.7-1.1,1.6-2,2.4-3c2.2-2.8,3.1-6.4,2.7-9.9c0-0.3-5,1.3-5.4,1.4c-1.8,0.8-3.4,1.8-4.8,3.1c-1.1,1.1-2.1,2.6-3.1,3.8
		c-1.4,1.7-2.8,3.5-4.2,5.2C292.7,171.5,291.1,173.5,289.6,175.5z"/>
	<path class="st11" d="M289.6,175.4c-1.4,1.9-2.9,4.1-2.6,6.5c0.2,1.3,0.9,2.4,1.4,3.6c0.7,1.6,1.1,3.3,1.5,5.1
		c0.5,2.5,1.1,5,1.4,7.6c0.4,2.9-1.4,11.2-1.6,14.1c0,0.7-0.1,1.5-0.6,2c-0.2,0.2-0.4,0.4-0.5,0.6c-0.1,0.3,0,0.5,0.1,0.7
		c0.8,1.8,2.5,3.2,4.3,4c1.9,0.8,6.3,1.5,8.4,1.6c0.3,0,0.5,0,0.8-0.1c0.3-0.2,0.5-0.4,0.6-0.7c1.5-2.8,0.1-12,0.1-15.1
		c0-2.6,0.6-5.2,0.5-7.8c-0.1-2.1-0.7-4.1-0.9-6.2c-0.3-3.4,0.3-6.9,0.9-10.2c0.5-2.6,1-5.2,1.6-7.7c0.4-1.6,0.8-3.1,1.7-4.5
		c0.7-1.1,1.6-2,2.4-3c2.2-2.8,3.1-6.4,2.7-9.9c0-0.3-5,1.3-5.4,1.4c-1.8,0.8-3.4,1.8-4.8,3.1c-1.1,1.1-2.1,2.6-3.1,3.8
		c-1.4,1.7-2.8,3.5-4.2,5.2C292.7,171.4,291.1,173.4,289.6,175.4z"/>
	<circle class="st10" cx="273.6" cy="125.1" r="8.1"/>
	<path class="st10" d="M280.9,124.8c1.5,2.4,3.9,4.1,6.7,4.7l-0.6,2.2c-1.1,3.8-2.2,7.8-5.2,10.5c0.3-1.3-0.1-2.7-0.8-3.8
		s-1.7-2-2.7-2.9l-4.7-4c-0.1-0.1-0.2-0.2-0.3-0.4c-0.1-0.3-0.1-0.6,0-0.9c0.6-1.8,2.3-3,3.7-4.2c0.7-0.6,1.3-1.4,1.8-2.1
		C279.7,122.5,280.2,123.8,280.9,124.8z"/>
	<path class="st5" d="M262.9,117l-0.2-1.5c1.3,0.3,2.5-0.8,3.3-1.9s1.6-2.4,2.8-2.9c1.5-0.6,3.1,0.3,4.6,1.1
		c1.6,0.9,3.4,1.5,5.2,1.7c0.3,0,0.6,0.1,0.9,0.1c0.9,0.3,1.4,1.5,1.5,2.6c0.1,1.1,0.1,2.2,0.6,3.2c0.3,0.7,1,1.3,1.3,2
		c1,1.9,0,4.5,1.1,6.4l-2.6-2.4c-0.2-0.2-0.6-0.4-0.8-0.3c-0.2,0.1-0.2,0.5-0.3,0.7c-0.3,0.7-1.2,1-1.8,0.7
		c-0.7-0.3-1.2-0.9-1.7-1.5c-1.1-1.4-2.5-2.5-4.1-3.1c-1.4-0.5-3-0.4-4.3,0.3c-1.2,0.7-2.1,2.3-3.6,2.3c-2,0.1-2.9-3.7-3.8-5.2
		c0.7-0.5,0.9-1.5,0.5-2.3C261.6,116.9,262.9,116.8,262.9,117z"/>
	<path class="st6" d="M162.8,69.7c-0.7,0.6-1.3,1.2-1.8,1.9c-0.5,0.7-0.8,1.5-0.8,2.4c0,0.3,0.1,0.5,0.2,0.7
		c0.2,0.2,0.4,0.3,0.7,0.2c0.1-0.1,0.2-0.2,0.3-0.3c0.4-0.4,0.7-0.8,1.1-1.2c0.1-0.1,0.3-0.3,0.5-0.2c0.1,0,0.2,0.1,0.2,0.2
		c0.2,0.2,0.4,0.4,0.5,0.7c0.1,0.5-0.2,1-0.5,1.4c-0.3,0.4-0.7,0.8-0.9,1.3c-0.1,0.1-0.1,0.3,0,0.4c0.1,0.1,0.2,0.2,0.3,0.2
		c1,0.5,2.1,0.6,3.1,0.2c0.7-0.3,1.3-0.7,1.9-1c0.3-0.1,0.6-0.2,0.9-0.3c0.4-0.3,0.7-0.7,0.8-1.1c0.1-0.5,0.1-0.9,0.1-1.4
		c-0.1-1.8-0.5-3.6-1.1-5.3c0-0.1-0.1-0.2-0.2-0.3c-0.1-0.1-0.2-0.1-0.3-0.1c-0.9-0.1-2.3-0.5-3.1-0.2c-0.3,0.2-0.5,0.4-0.7,0.6
		C163.8,68.7,162.8,69.5,162.8,69.7z"/>
	<path class="st5" d="M162.5,68.9c0-0.8-1-2.8,0.6-2.9c0-0.9-1.2-1.4-1-2.3c0.1-0.3,0.3-0.6,0.4-0.9c0.1-0.9-1.5-1.4-1.2-2.2
		c0.1-0.3,0.5-0.5,0.5-0.9c0.2-0.8-1.2-1.1-1.2-1.9c0-0.3,0.2-0.5,0.1-0.8c0-0.3-0.3-0.6-0.5-0.9c-0.4-0.7-0.2-1.9-1-2.3
		c0.5,0,0.7-0.7,0.5-1.2c-0.2-0.5-0.6-0.9-0.6-1.4c0-0.2,0-0.4,0-0.6c-0.1-0.5-0.9-0.5-1.1-1c0-0.2,0-0.4,0-0.5
		c-0.1-0.4-0.4-0.6-0.8-0.7c-0.4-0.1-0.7-0.2-1.1-0.4c-0.2-0.2-0.5-0.5-0.8-0.3c-0.1,0.1-0.1,0.2-0.2,0.2c-0.3,0.4-0.9,0.2-1.3-0.1
		c-1.1-0.8-1.7-2.1-1.9-3.4c-0.2-1.3-0.2-2.7-0.5-4c-0.1-0.4-0.2-0.8-0.4-1.2c-0.1-0.3-0.5-0.9-0.6-1.2c-0.1-0.8,1.5-0.2,2.1-0.2
		c0.6,0.1,1.2,0.2,1.7,0.3c0.6,0.2,1.2,0.5,1.8,0.8c2.4,1.1,5.3,1.2,7.2,3c0.6,0.6,1.2,1.4,2,1.6c0.4,0.1,0.8,0.2,1.1,0.3
		c0.9,0.4,1.1,1.6,1.6,2.5c0.2,0.2,0.3,0.5,0.4,0.7c0.1,0.3,0.1,0.6,0.1,0.9l0.1,2.3c0.1,3.9,0.2,7.8-0.2,11.6
		c-0.1,1.3-0.3,2.6,0,3.8c0.1,0.3,0.2,0.6,0.3,1c0.1,0.4,0.1,0.8,0.1,1.2l0.1,1.5c0,0.1,0,0.2-0.1,0.3c-0.1,0.1-0.3,0.1-0.4,0.1
		c-2.1-0.2-4.2-1.4-6.2-0.7"/>
	<ellipse class="st1" cx="257.6" cy="180.4" rx="24.7" ry="3.6"/>
	
		<linearGradient id="SVGID_1_" gradientUnits="userSpaceOnUse" x1="324.9702" y1="-72.8193" x2="324.9702" y2="90.1305" gradientTransform="matrix(1 0 0 -1 -84.46 111.18)">
		<stop  offset="0" style="stop-color:#808080;stop-opacity:0.25"/>
		<stop  offset="0.54" style="stop-color:#808080;stop-opacity:0.12"/>
		<stop  offset="1" style="stop-color:#808080;stop-opacity:0.1"/>
	</linearGradient>
	<path class="st13" d="M278.9,180.6c-0.4-1.9-0.7-3.5-0.7-3.5s0.1-2-0.8-3.5v-0.5l0,0v-3.7c0.3-0.7,0.6-1.3,0.9-2
		c0.7-1.2,0-5.5,0-5.5s-2.5-6.1-1.9-9.9c0.6-3.8-5.1-17.1-5.1-17.1c0-1.3,0.2-2.5,0.5-3.8c0.1-0.3,0.1-0.5,0.1-0.8c0,0,0-0.1,0-0.1
		s0,0,0,0c-0.1-2.5-2.1-7.3-2.1-7.3l0.3-9.1c0,0,1.3-5.3-0.8-12.5c-0.7-2.5-1.2-4.5-1.5-6.1c0-0.2-0.1-0.3-0.1-0.5
		c4.3-0.7,7.6-1.2,7.6-1.2s-2.5-10.4-4.2-12.3s-3-7.6-3-7.6s-0.9-7.4,0.5-9.5c1.4-2.2,1.6-5.9,1.6-5.9s3.2-2.3,3.6-3.4
		c0.4-1.1,1.1-3.4,1.1-4.6s-0.4-2.3-0.3-3c0.1-0.7-0.9-3.1-0.4-4.3c0.1-0.4,0.2-0.7,0.2-1.1c0,0,0,0,0,0l0,0c0-1-0.1-2.1-0.3-3.1
		c-0.9-0.8-2-1.4-3.2-1.7l-0.1-0.3l-0.2-0.7c-0.1-0.1-0.2-0.1-0.3-0.2v-0.3l0-1.1l0.5-2.4c1-4.1-4.5-4.8-4.5-4.8
		c-0.3-0.6-0.9-1.1-1.6-1.4c-1.1-0.4-0.2,6.2,0.3,6.7c0.4,0.3,1.6,2.4,2.2,3.4l0,0l0.1,0.2c-0.1,0.1-0.2,0.2-0.3,0.3l0.2,1.4l0,0.2
		c-0.4,0.5-0.7,1-0.9,1.5c0,0,1,1.1,0.8,2.3c-0.2,1.2,0.3,2.8,0.3,2.9c-0.1-0.1-0.8-0.8-1.5-0.7c-0.7,0.2-2.7,0.8-2.7,0.8
		s-1.5,0.3-1.3,0.6c0.1,0.3-1,1.8-1,1.8l-4-3.8c0-0.1-0.1-0.2-0.1-0.3c-0.2-0.5-0.3-1.1-0.3-1.7c0.4-0.1,0.9-0.2,1.3-0.4
		c0.4-0.1,0.8-0.4,1.1-0.7c0.4-0.5,0.5-1.1,0.6-1.7c0.3-1.2,1-2.2,1.5-3.3c0.8-1.9,1.1-3.9,0.8-5.9c-0.1-0.6-0.3-1.2-0.6-1.7
		c-0.7-0.9-1.8-1.3-2.7-2c-0.9-0.7-1.4-1.8-2.4-2.3c-0.9-0.5-2-0.4-3-0.3c-2,0.3-3.9,1-5.6,2.1c-0.6,0.3-1.2,0.7-1.9,0.6
		c-0.6-0.1-1-0.6-1.4-1c0,0,0,0,0-0.1c0,0,0,0,0-0.1c-0.4,0.9-0.6,2-0.6,3c0,0.2,0,0.3,0,0.5v0.2c0,0,0,0.1,0,0.1l0,0
		c0,0.1,0,0.1,0,0.2c-0.1,0.2-0.2,0.4-0.4,0.5c-0.1,0.1-0.2,0.3-0.3,0.4c0-0.1,0-0.1,0.1-0.2c-0.3,0.4-0.4,0.8-0.4,1.3
		c0,0.3,0.1,0.6,0.3,0.9c0.2,0.2,0.4,0.4,0.7,0.5c-0.1,0.4-0.1,0.9-0.1,1.3c0,2.7,1.4,5.2,3.8,6.6c0,0.1,0.1,0.2,0.1,0.3
		c0.5,1.3,0.9,2.9,0.7,4.3c0,0.1,0,0.2,0,0.3c0,0.1-0.1,0.1-0.1,0.2l0,0c0,0-6.6,0.1-8.1-1.3s-3.9,3.4-3.9,3.4s-2.4,0.5-2.8,0
		c-0.5-0.5-3.2-0.1-3.2-0.1c-1.1-1-2.6-1.5-4.1-1.5c-0.9-0.7-1.9-1.3-3-1.7l0,0l-0.1,0l0,0c-0.5-0.2-1-0.2-1.5-0.2
		c0,0-3.2-2.7-4.2-4.1c-0.9-1.4-5.4-6.8-5.5-6.8v-0.3l-0.1-0.8c-0.1,0-0.3,0-0.4,0c0-0.1-0.1-0.2-0.1-0.3c-0.3-0.8-0.6-1.5-1-2.2
		c0,0,0-1,0.3-1.2s-0.1-3.8-0.1-3.8s-2.9-6.8-5.5-1.7c0,0-4.9,3.3-0.8,7.1c0,0,1.7,0.8,1.9,1.4c0.2,0.4,0.7,1.6,1.1,2.3l0.2,0.3l0,0
		l0.1,0.6l0,0.2c-0.8,0.4-1.3,0.9-1.2,1.2c0.2,0.6,0.4,1.2,0.5,1.8c0,0,5.7,7.2,6.5,10.2c0,0,15.4,9.1,20.4,9.8l-0.9,4.6
		c-0.1,1.2-0.2,2.5-0.2,3.7c0.1,1-0.6,5.4-0.6,5.4s-0.9,6.5-1.6,7.4c-0.7,0.9-0.6,4.8-0.6,4.8c-0.2,1.9-0.5,3.7-1,5.5
		c-0.7,2.5-0.2,5.5-0.2,5.5s-2.6,5.9,3.6,1.9c0,0,3-0.2,6.5-0.3c0,0.1,0,0.2,0,0.3c0,0.4,0,0.9,0,1.4c0,3.4-0.1,8,0.1,11.5
		c0.3,6.2,2.2,18.5,2.2,18.5v6.2c-0.1,0.6-0.2,1.2-0.2,1.8c0,2.2,0.5,4.3,1.7,6.2l0.5,4.1c0,0,1.1,2.7,1.1,4.3c0,0.1,0,0.3,0,0.4
		c0,0.2-0.1,0.4-0.1,0.6c-0.1,1.9,1.1,6.3,1.1,6.3s0.1,4.5,0.7,4.8c0.6,0.2-0.8,2.6-1.2,3.3c0,0,0-0.1,0-0.1l-0.1,0.1
		c-0.1,0.4-0.2,0.8-0.2,1.1c-0.1,0.6,0.2,1.2,0.7,1.6c1.3,0.8,2,1.4,0.9,1.7c-0.4,0.1-0.8,0.1-1.2,0.3c0-0.1,0-0.1-0.1-0.2
		c-0.3,0.1-0.5,0.5-0.4,0.8c0,0.5,0.1,1,0.4,1.5c1.1,2.4,1.8,3.3,1.8,3.3l0.5-0.1c-0.1,0.2-0.2,0.4-0.3,0.6
		c-0.2,0.3-0.5,0.5-0.8,0.7c-0.3,0.2-0.6,0.3-0.9,0.3c-0.7,0-1.4,0.4-1.9,0.9c-0.7,0.9-1.1,2.1,0.2,3.1l4.8,1.7c0,0,8.3,1.1,7.8-0.8
		c-0.4-1.9-0.7-3.5-0.7-3.5c0-1.1-0.2-2.3-0.7-3.3c-0.1-0.2-0.2-0.3-0.3-0.5l0.3,0c0,0,0.6-4.1,1.4-4.9c0.2-0.2,0.2-0.3,0.2-0.4
		c0.1-0.2-0.1-0.4-0.4-0.4l-0.1,0.2c-0.3-0.1-0.5-0.1-0.8-0.1c0,0-0.3-2.2,0.6-2.9c0.1-0.2,0.2-0.4,0.2-0.6c0-0.3,0-0.6-0.1-0.9
		c0,0,0,0,0,0.1c-0.4-2-1.9-5.1-1.9-5.1s-0.1-2,0.5-2.7c0.5-0.8-0.1-10.6-0.1-10.6s0.2-4.8-0.4-7c-0.6-2.2,0.7-4.8,0.7-4.8
		s0-0.1,0-0.1v0l-0.1-0.8c0,0,0,0,0,0c-0.1-1.3-0.4-3.5-0.6-4.6c-0.3-1.5,0.1-8.7,0.1-8.7l1.2-3.1l2.2,5.3l2.3,7c0,0,1.1,1.5,1.2,3
		c0,0.1,0,0.1,0,0.2c0,0.2,0,0.3,0,0.5c0,0.9,0.2,1.8,0.7,2.5c0,0,0.6,3.3,1.6,4.2c0.9,0.8,0.9,2.5,0.9,2.5s1.1,4.8,1.7,5.7
		c0.5,0.7,0.5,2.7,0.5,3.3l0,0c0,0.1,0,0.2,0,0.2s0.2,1.7,0.2,3.2c0,0.2,0,0.4,0,0.5c0,0,0,0,0,0c0,0.4,0,0.8-0.1,1.2l0,0.1
		c0-0.1,0-0.2,0-0.2c-0.2,1-0.3,2-0.3,3c0,1.7,0.2,3.8,1.3,5c1.8,2.1,3,1.8,3,1.8s-0.9,2.6-2,3.1c0,0-0.1,0-0.1,0.1
		c0-0.1,0-0.1,0-0.2c-0.2,0.3-0.4,0.6-0.3,1c-0.1,1.1,0.6,3,1.3,3.9c0.3,0.2,0.6,0.4,0.9,0.5c-0.1,0-0.1,0.1-0.2,0.1
		c-0.1,0.1-0.2,0.1-0.4,0.2c-0.2,0.1-0.4,0.1-0.6,0.1c-0.7,0-1.4,0.4-1.9,0.9c-0.7,0.9-1.1,2.1,0.2,3.1l4.8,1.7
		C271.1,181.4,279.3,182.5,278.9,180.6z"/>
	<path class="st14" d="M247.2,183.7l-4.7-1.7c-1.3-1-0.9-2.2-0.2-3.1c0.5-0.6,1.1-0.9,1.8-0.9c0.3,0,0.6-0.1,0.9-0.3
		c0.3-0.2,0.5-0.4,0.7-0.7c0.3-0.5,0.5-1.2,0.5-1.8c0,0,5.1-1.5,6.5,0c0.2,0.3,0.5,0.6,0.6,0.9c0.5,1,0.7,2.2,0.7,3.3
		c0,0,0.3,1.6,0.7,3.5C255.2,184.8,247.2,183.7,247.2,183.7z"/>
	<path class="st14" d="M270,181.4l-4.7-1.7c-1.3-1-0.9-2.2-0.2-3.1c0.4-0.6,1.1-0.9,1.8-0.9c0.2,0,0.4-0.1,0.5-0.1
		c0.1-0.1,0.2-0.1,0.4-0.2c1.3-0.7,1.3-2.5,1.3-2.5s5.1-1.5,6.5,0c0.2,0.2,0.4,0.4,0.5,0.7c0.9,1.5,0.8,3.5,0.8,3.5s0.3,1.6,0.7,3.5
		S270,181.4,270,181.4z"/>
	<path class="st7" d="M252.8,175.2c0.2,0.3,0.5,0.6,0.6,0.9l0,0l-7.7,0.9c0.3-0.5,0.5-1.2,0.5-1.8
		C246.3,175.2,251.4,173.7,252.8,175.2z"/>
	<path class="st7" d="M276.2,173.6v1.4c-1.2,2-7,1.5-8.6,0.6c0.1-0.1,0.2-0.1,0.4-0.2c1.3-0.7,1.3-2.5,1.3-2.5s5.1-1.5,6.5,0
		C275.9,173.1,276,173.3,276.2,173.6z"/>
	<path class="st5" d="M277.1,167.4c-0.4,0.6-0.7,1.3-0.9,2v5.2c-1.3,2.2-8.1,1.4-9,0.3c-0.9-1.2-1.9-4.2-0.8-4.8s1.9-3.1,1.9-3.1
		s-1.1,0.3-2.9-1.8c-1.8-2.1-1.2-6.7-0.9-7.8s0-4.8,0-4.8s0.1-2.6-0.5-3.5c-0.5-0.8-1.6-5.7-1.6-5.7s0-1.6-0.9-2.5
		c-0.9-0.8-1.5-4.2-1.5-4.2c-0.5-0.8-0.8-1.8-0.7-2.8c0.2-1.6-1.1-3.4-1.1-3.4l-2.2-7l-2.1-5.3l-1.2,3.1c0,0-0.3,7.2-0.1,8.7
		c0.3,1.5,0.7,5.5,0.7,5.5s-1.3,2.6-0.7,4.8c0.6,2.2,0.4,7,0.4,7s0.6,9.8,0.1,10.6c-0.5,0.8-0.5,2.7-0.5,2.7s2.7,5.7,1.8,6.5
		c-0.8,0.8-0.6,2.9-0.6,2.9s1.8,0,1,0.8c-0.8,0.8-1.4,4.9-1.4,4.9l-7.9,0.9c0,0-0.7-0.9-1.8-3.3c-1-2.4,0.2-2.2,1.2-2.4
		c1.1-0.3,0.4-0.9-0.9-1.7c-1.2-0.8-0.5-2.5-0.5-2.5s1.9-3.2,1.2-3.5c-0.7-0.3-0.7-4.8-0.7-4.8s-1.3-5.3-1-6.8c0.3-1.4-1-4.9-1-4.9
		l-0.5-4.1c-1.4-2.3-1.9-5.1-1.4-7.8v-6.3c0,0-1.8-12.3-2.1-18.5c-0.2-4-0.1-9.4-0.1-12.8c0-1.9,0.1-3.2,0.1-3.2l28.2-2.9
		c0,0,0,1.3,0.5,4.2c0.3,1.5,0.7,3.6,1.4,6.1c2,7.2,0.8,12.5,0.8,12.5l-0.3,9.1c0,0,2.5,6.1,2,8.1c-0.3,1.2-0.5,2.5-0.5,3.8
		c0,0,5.5,13.2,5,17.1c-0.6,3.8,1.8,9.9,1.8,9.9S277.7,166.2,277.1,167.4z"/>
	<path class="st11" d="M261,133.4l8.6-1.1C269.5,132.3,264.7,137.2,261,133.4z"/>
	<path class="st7" d="M268.3,123.9c0,0,0.3,3-1.6,4.2C266.7,128.1,270.1,127.5,268.3,123.9z"/>
	<path class="st7" d="M267.8,114.2c0,0-7.2,5.9-9.8,5.4C255.4,119.1,267.8,114.2,267.8,114.2z"/>
	<path class="st7" d="M250.3,136.2c0,0-5.4,1.2-5.6,3.4C244.6,141.8,250.3,136.2,250.3,136.2z"/>
	<path class="st11" d="M251.5,163.4c0,0-7.7,1.4-5.5,2.4c2.2,1,5.8,1.8,5.8,1.8S254.3,167.7,251.5,163.4z"/>
	<g class="st15">
		<path d="M244.5,167.3c-0.4-0.2-0.7-0.7-0.7-1.1l-0.1,0.1c0,0-0.7,1.8,0.5,2.5c0.1,0.1,0.3,0.2,0.4,0.3c0.2,0,0.5-0.1,0.7-0.1
			C246.4,168.8,245.7,168.1,244.5,167.3z"/>
		<path d="M254.4,166.8c0.2-0.2,0.2-0.7,0.1-1.3c-0.3,0.5-0.4,1.3-0.4,1.9C254.1,167.2,254.2,167,254.4,166.8z"/>
		<path d="M253.2,134.4c-0.3,0.8-0.5,1.6-0.5,2.4c0.1-0.6,0.3-1.1,0.6-1.6L253.2,134.4z"/>
		<path d="M270.8,130.9c0.1-0.2,0.1-0.5,0.1-0.7c-0.1,0.5-0.2,0.9-0.2,1.3C270.7,131.4,270.8,131.2,270.8,130.9z"/>
		<path d="M253,157.5c0.1-0.2,0.2-0.7,0.2-1.5c-0.2,0.6-0.4,1.2-0.4,1.8C252.9,157.8,252.9,157.7,253,157.5z"/>
		<path d="M254.6,169.8c-0.4,1.3-0.7,2.6-0.9,4l-7.9,0.9c0,0-0.7-0.9-1.8-3.3c-0.1-0.2-0.2-0.4-0.2-0.6c-0.5,0.2-0.7,0.7,0,2.1
			c1,2.4,1.8,3.3,1.8,3.3l7.9-0.9c0,0,0.6-4.1,1.4-4.9C255.2,170.1,255,169.9,254.6,169.8z"/>
		<path d="M244.2,158.1c0,0,0.1,4.5,0.7,4.8l0,0c0.3-0.7,0.6-1.5,0.3-1.6c-0.7-0.3-0.7-4.8-0.7-4.8s-1.3-5.3-1-6.8
			c0.3-1.4-1-4.9-1-4.9l-0.5-4.1c-1.4-2.3-1.9-5.1-1.4-7.8v-6.3c0,0-1.8-12.3-2.1-18.5c-0.2-4-0.1-9.4-0.1-12.8c0-0.6,0-1.2,0-1.6
			l-0.2,0c0,0,0,1.3-0.1,3.2c-0.1,3.4-0.1,8.8,0.1,12.8c0.3,6.2,2.1,18.5,2.1,18.5v6.3c-0.5,2.7,0,5.4,1.4,7.8l0.5,4.1
			c0,0,1.4,3.5,1,4.9C242.9,152.8,244.2,158.1,244.2,158.1z"/>
		<path d="M267.4,173c-0.6-0.9-1.1-2-1.3-3.1c-0.8,0.7,0.1,3.5,1,4.7c0.9,1.2,7.7,1.9,9-0.3v-1.2C274.4,174.8,268.3,174.1,267.4,173
			z"/>
		<path d="M277.3,165.6c-0.4,0.6-0.7,1.3-0.9,2v0.9c0.2-0.3,0.4-0.8,0.7-1.3C277.3,166.7,277.4,166.1,277.3,165.6
			C277.4,165.6,277.3,165.6,277.3,165.6z"/>
		<path d="M267.8,166.7c0.2-0.5,0.5-1,0.6-1.6c0,0-1.1,0.3-2.9-1.8c-1.3-1.5-1.4-4.4-1.2-6.3c-0.3,1.1-0.9,5.7,0.9,7.8
			C266.5,166.2,267.4,166.6,267.8,166.7z"/>
		<path d="M264.4,152.2c0.1,1.3,0.2,2.6,0.1,3.9c0-0.2,0.1-0.4,0.1-0.6c0.3-1.1,0-4.8,0-4.8s0.1-2.6-0.5-3.5
			c-0.5-0.8-1.6-5.7-1.6-5.7s0-1.6-0.9-2.5s-1.5-4.2-1.5-4.2c-0.5-0.8-0.8-1.8-0.7-2.8c0.2-1.6-1.1-3.4-1.1-3.4l-2.2-7l-2.1-5.3
			l-1.2,3.1c0,0,0,0.4,0,1l1-2.5l2.1,5.3l2.2,7c0,0,1.3,1.8,1.1,3.4c-0.1,1,0.1,2,0.7,2.8c0,0,0.6,3.3,1.5,4.2
			c0.9,0.8,0.9,2.5,0.9,2.5s1.1,4.8,1.6,5.7C264.5,149.6,264.4,152.2,264.4,152.2z"/>
	</g>
	<path class="st16" d="M269.9,32.2l-0.5,2.4l0,1.1l0,0.8l-2.7,0.3l-0.3-0.6l0,0c-0.6-1-1.7-3.1-2.1-3.4c-0.5-0.4-1.4-7-0.3-6.6
		c0.7,0.3,1.2,0.7,1.5,1.4C265.5,27.5,270.9,28.1,269.9,32.2z"/>
	<path class="st7" d="M269.5,36.4l-2.7,0.3l-0.3-0.6l0,0c0.8-0.9,2-1.1,3-0.5L269.5,36.4z"/>
	<path class="st3" d="M270.1,37.7l-3.6,0.8l-0.1-0.5l-0.2-1.4c0,0,1.4-1.9,3.5-0.5l0.2,0.7L270.1,37.7z"/>
	<path class="st16" d="M212,32.5l-3.8,2.1l-0.3-0.7c-0.4-0.8-0.9-1.9-1.1-2.3c-0.2-0.6-1.8-1.4-1.8-1.4c-4-3.8,0.8-7.1,0.8-7.1
		c2.5-5.1,5.3,1.7,5.3,1.7s0.4,3.6,0.1,3.8c-0.3,0.2-0.3,1.2-0.3,1.2c0.4,0.7,0.7,1.4,0.9,2.2C212,32.3,212,32.5,212,32.5z"/>
	<path class="st7" d="M212,32.5l-3.8,2.1l-0.3-0.7c0.5-0.5,2.5-2,3.1-1.9c0.3,0,0.6,0,0.9,0C212,32.3,212,32.5,212,32.5z"/>
	<path class="st3" d="M212.4,33.6l-4.3,2.1l-0.1-0.9l-0.1-0.6c0,0,2.5-2.1,3.2-2.1c0.4,0.1,0.8,0.1,1.1,0l0.1,0.8L212.4,33.6z"/>
	<path class="st16" d="M259.5,48c0,0-18.8,2.1-15.3,1c2.4-0.8,3.4-2.3,3.6-4.1c0.2-1.4-0.2-3-0.7-4.3c-0.4-1.2-1-2.3-1.7-3.4
		c0,0,14.3-7.9,11.5-0.7c-0.4,1.1-0.7,2.2-0.8,3.4c-0.1,1.2,0,2.3,0.4,3.4C257,45.1,258.1,46.8,259.5,48z"/>
	<path class="st7" d="M256.9,36.5c-0.4,1.1-0.7,2.2-0.8,3.4c-1.4,1.1-2.8,1.1-4.7,1.1c-1.5,0-3.1,0.4-4.2-0.4
		c-0.4-1.2-1-2.3-1.7-3.4C245.5,37.2,259.8,29.3,256.9,36.5z"/>
	<circle class="st16" cx="251.1" cy="33.7" r="7.8"/>
	<path class="st7" d="M259.5,48c0,0-18.8,2.1-15.3,1c2.4-0.8,3.4-2.3,3.6-4.1c0.9-1,2.8-1.7,4-2.1c1.1-0.4,2.3-0.4,3.4-0.1
		c0.4,0.1,0.9,0.3,1.2,0.6C257,45.1,258,46.8,259.5,48z"/>
	<path class="st7" d="M270.1,37.7l-3.6,0.8l-0.1-0.5c0.8-1.1,2.2-1.6,3.5-1.2L270.1,37.7z"/>
	<path class="st7" d="M212.4,33.6l-4.3,2.1l-0.1-0.9c1.4-0.7,2.8-1.4,4.3-1.9L212.4,33.6z"/>
	<path class="st7" d="M266.9,95.3c-7.3,1.2-17.6,2.6-19.3,2.1c-1.4-0.4-5.7-0.4-9.5-0.2c0-1.9,0.1-3.2,0.1-3.2l28.2-2.9
		C266.4,91.1,266.4,92.4,266.9,95.3z"/>
	<path class="st12" d="M274.1,93.6c0,0-23.9,4.1-26.5,3.3c-2.6-0.8-15.8,0.1-15.8,0.1c-5.9,4-3.5-1.9-3.5-1.9s-0.5-3.1,0.2-5.5
		c0.5-1.8,0.8-3.7,1-5.5c0,0-0.1-3.9,0.6-4.8c0.7-0.9,1.6-7.4,1.6-7.4s0.7-4.4,0.6-5.4c-0.1-1,0.2-3.7,0.2-3.7l0.9-4.6
		c-4.9-0.7-19.8-9.8-19.8-9.8c-0.7-3.1-6.3-10.2-6.3-10.2c-0.1-0.6-0.2-1.2-0.5-1.8c-0.4-1,5.5-3.1,5.5-3.1s4.4,5.3,5.3,6.8
		c0.9,1.4,4,4.1,4,4.1c0.5,0,1,0,1.4,0.2l0.1,0l0,0c1,0.4,2,1,2.9,1.7c1.5,0,2.9,0.5,4,1.5c0,0,2.7-0.4,3.1,0.1c0.5,0.5,2.7,0,2.7,0
		s2.3-4.8,3.8-3.4c1.5,1.4,7.9,1.3,7.9,1.3c0.8-1.1,2.9-1.9,4.2-2.3c1.1-0.4,2.3-0.4,3.4-0.1c0.5,0.1,0.9,0.4,1.3,0.7l3.9,3.8
		c0,0,1.1-1.4,1-1.8s1.3-0.6,1.3-0.6s1.9-0.6,2.6-0.8c0.7-0.2,1.4,0.6,1.4,0.7c0-0.1-0.5-1.7-0.3-2.9s-0.8-2.3-0.8-2.3
		c2.3-5.6,7.4-0.9,7.4-0.9s0.6,3.1,0.1,4.2c-0.5,1.2,0.5,3.7,0.4,4.3s0.3,1.8,0.3,3s-0.7,3.6-1,4.6c-0.4,1-3.5,3.4-3.5,3.4
		s-0.2,3.7-1.6,5.9c-1.4,2.2-0.5,9.5-0.5,9.5s1.3,5.7,2.9,7.6C271.7,83.2,274.1,93.6,274.1,93.6z"/>
	<path class="st7" d="M239.3,50.7c0,0-0.7-2.2-1.4-2.3c-0.6-0.2-1.3-0.5-1.9-0.8l0.4-0.8c0,0,2.4,0.7,2.8,1.4
		C239.6,48.8,239.3,50.7,239.3,50.7z"/>
	<path class="st7" d="M226.1,45.9c-0.1,0.7-5.9,1.2-5.9,1.2l2.9-2.9l0,0l0.1,0l0,0C224.3,44.7,225.3,45.2,226.1,45.9z"/>
	<circle class="st17" cx="209.3" cy="37" r="0.5"/>
	<circle class="st17" cx="210" cy="38" r="0.5"/>
	<circle class="st17" cx="210.7" cy="39" r="0.5"/>
	<circle class="st17" cx="211.4" cy="40" r="0.5"/>
	<circle class="st17" cx="272.8" cy="40" r="0.4"/>
	<circle class="st17" cx="272.9" cy="41" r="0.4"/>
	<circle class="st17" cx="272.9" cy="41.9" r="0.4"/>
	<path class="st7" d="M239.3,68.4c-0.1-0.1,14.6,18.5,26.1,7.8C265.3,76.1,247.3,78.6,239.3,68.4z"/>
	<path class="st7" d="M230.8,78c0,0,8.8,0.2,9.7,2.8v2.6c-0.5,0.3-1.1,0.3-1.6,0c-0.9-0.5-6.2-3.2-8.1-1.9L230.8,78z"/>
	<path class="st12" d="M231,78c0,0,8.4,0.2,9.3,2.6v2.5c-0.5,0.3-1.1,0.3-1.6,0c-0.8-0.5-5.9-3-7.7-1.8V78z"/>
	<path class="st7" d="M235.6,58.9c0.9,2.1,2,4,3.4,5.9c1.5,2,3.3,3.7,5.3,5.2C244.4,69.9,235.8,60.1,235.6,58.9z"/>
	<path class="st7" d="M232.8,48.7c0,0,1.5,6.3,5.2,8.5L232.8,48.7z"/>
	<path class="st7" d="M230.5,49.3c0-0.1-1.3,5,4.9,7.8C235.4,57.2,232.8,56.3,230.5,49.3z"/>
	<path class="st7" d="M268.9,45.1c-0.1,0,3,2,3.9,2.9C272.8,48,270.8,45,268.9,45.1z"/>
	<path class="st14" d="M249,40.7c0,0.7,0.6,1.2,1.2,1.2c0,0,0.1,0,0.1,0c2.4,0.1,4.8,0.3,7-0.7c0.4-0.1,0.8-0.4,1.1-0.7
		c0.4-0.5,0.5-1.1,0.6-1.7c0.3-1.2,1-2.2,1.4-3.3c0.8-1.9,1.1-3.9,0.8-5.9c-0.1-0.6-0.3-1.2-0.6-1.7c-0.6-0.9-1.8-1.3-2.6-2
		s-1.4-1.8-2.3-2.3c-0.9-0.5-1.9-0.4-2.9-0.3c-1.9,0.3-3.8,1-5.5,2.1c-0.6,0.3-1.2,0.7-1.8,0.6c-0.6-0.1-1-0.6-1.3-1
		c-0.5,1.1-0.6,2.2-0.6,3.4c0,0.2,0,0.3,0,0.5c-0.1,0.2-0.2,0.4-0.4,0.5c-0.6,0.7-0.9,1.8-0.4,2.4c0.3,0.3,0.6,0.5,0.9,0.8
		c0.4,0.5,0.3,1.3,0.3,2c0,0.2,0,0.5,0.2,0.7c0.3,0.2,0.6,0.3,1,0.2c0.3-0.1,0.7-0.1,1-0.1c0.4,0.1,0.7,0.4,0.9,0.7
		C248.1,37.5,248.6,39,249,40.7z"/>
	<g class="st18">
		<path d="M258.7,40c-0.3,0.3-0.7,0.6-1.1,0.7c-2.2,0.9-4.6,0.8-7,0.7c-0.3,0-0.5-0.1-0.7-0.2c-0.4-0.2-0.5-0.7-0.6-1.1
			c-0.5-1.7-0.9-3.2-2-4.6c-0.2-0.3-0.5-0.6-0.9-0.7c-0.3,0-0.7,0-1,0.1c-0.3,0.1-0.7,0-1-0.2c-0.1-0.2-0.2-0.4-0.2-0.7
			c0-0.7,0.2-1.5-0.3-2c-0.2-0.3-0.6-0.5-0.9-0.8c-0.3-0.5-0.4-1-0.2-1.6c-0.4,0.7-0.6,1.5-0.1,2.1c0.3,0.3,0.6,0.5,0.9,0.8
			c0.4,0.5,0.3,1.3,0.3,2c0,0.2,0,0.5,0.2,0.7c0.3,0.2,0.6,0.3,1,0.2c0.3-0.1,0.7-0.1,1-0.1c0.4,0.1,0.7,0.4,0.9,0.7
			c1.1,1.4,1.5,2.9,2,4.6c0.1,0.4,0.3,0.8,0.6,1.1c0.2,0.1,0.5,0.2,0.7,0.2c2.4,0.1,4.8,0.3,7-0.7c0.4-0.1,0.8-0.4,1.1-0.7
			c0.1-0.2,0.3-0.4,0.3-0.6C258.8,39.9,258.7,39.9,258.7,40z"/>
		<path d="M243.6,28.7c0.1-0.1,0.2-0.2,0.2-0.4c0-0.2,0-0.3,0-0.5c-0.1-1,0.1-1.9,0.4-2.8l0-0.1c-0.5,1.1-0.6,2.2-0.6,3.4
			C243.6,28.4,243.6,28.5,243.6,28.7z"/>
	</g>
	<path class="st7" d="M247.6,45.4c0,0,9.7,1.3,10.6-0.2"/>
	<path class="st7" d="M266.5,41.4c0,0,5.4,0,6.6,2"/>
	<path class="st12" d="M296.6,221.5c-1.6,1.4-3.7,2.2-5.8,2.2c-0.5,0-1.3,0.1-1.3,0.7c0,0.2,0.1,0.3,0.2,0.4c0.7,1.1,1.7,2,3,2.4
		c1.2,0.4,2.4,0.3,3.6,0.2l3.6-0.2c0.7,0,1.3-0.1,2-0.2c0.7-0.1,1.4-0.2,2.1-0.3c1.7-0.2,3.4-0.3,5.2-0.2c0.5,0,1,0,1.3-0.3
		c0.3-0.3,0.1-1,0-1.5c-0.2-1,0-2.1-0.2-3.1c-0.3-1.8-1.9-3.2-3.6-3.9c-1.6-0.6-4.4-1.3-5.9-0.3C299,218.4,298.1,220.2,296.6,221.5z
		"/>
	<path class="st5" d="M300.2,160.8c0.3,1.5,1.8,2.6,1.8,4.2c0,1.2-0.8,2.2-1.5,3.3c-0.6,1.1-1.1,2.2-1.5,3.4c-1.2,3-2.6,5.9-4.4,8.7
		c-0.8,1.3-1.8,2.8-1.6,4.3c0.1,0.7,0.4,1.4,0.8,2.1l2.5,5c0.5,1,1,2,1.3,3.1c0.2,0.9,0.2,1.9,0.4,2.9c0.4,3,1.8,6.1,1,9.1
		c-0.1,0.3-0.3,0.6-0.5,0.4c0.8,1.5,1.5,3.1,1.4,4.8c0,0.9-0.3,1.9,0,2.7c0.1,0.4,0.4,0.7,0.4,1.1c0,0.3-0.1,0.5-0.1,0.7
		c-0.1,0.7,0.6,1.3,1.2,1.5c0.7,0.2,1.4,0.2,2.1,0.4c1.3,0.4,2.2,1.5,3.3,2.3c1.1,0.8,2.5,1.2,3.8,1.3c0.2,0,0.4,0,0.6-0.1
		c0.2-0.2,0.3-0.4,0.3-0.7c0.1-1.3-0.4-2.5-1.4-3.3c-0.2-0.1-0.4-0.3-0.5-0.5c-0.1-0.2-0.1-0.4,0-0.6c0.2-2.7,0.2-5.5-0.1-8.2
		c-0.1-0.9-0.2-1.7-0.1-2.6c0.1-0.7,0.3-1.4,0.2-2.2c-0.1-0.7-0.5-1.4-0.7-2.1c-0.4-1.2-0.3-2.6-0.3-3.9c-0.1-2.3-0.6-4.5-1.1-6.7
		c-0.2-0.9-0.4-1.8-1-2.4c-0.5-0.5-1.4-1.1-1.2-1.8c0.1-0.3,0.3-0.5,0.5-0.7c0.5-0.6,0.7-1.4,0.6-2.2c0.5,0.1,0.9-0.1,1.1-0.5
		c4.1-1.9,7.3-5.8,8.8-10c0.1-0.3,0.2-0.6,0.4-0.9c0.4-0.5,1-0.8,1.6-1c1.8-0.9,3.1-2.6,4.2-4.3c0.7-1,1.3-2,1.6-3.1
		c0.2-0.7,0.2-1.5,0.2-2.3l0.1-3.9c0-0.3,0-0.5-0.1-0.8c-0.1-0.2-0.2-0.4-0.4-0.6c-1.1-1.2-2.6-2-4.2-2.2c-1.1-0.2-2.2-0.2-3.2-0.2
		c-2.1-0.2-4.2-0.8-6.3-0.7c-3.3,0.2-6.2,2.5-7.8,5.4C301.9,159.8,301.3,160.7,300.2,160.8z"/>
	<path class="st3" d="M281.9,135.3c0,0.6,0,1.2-0.2,1.8c-0.3,0.5-0.9,1-1.5,0.8c0.2-0.4-0.3-0.8-0.7-0.8c-0.4,0.1-0.8,0.4-0.9,0.8
		c-0.3,0.6-0.4,1.2-0.3,1.8c0.1,0.8,0.6,1.5,0.5,2.3c-0.1,0.6-0.6,1.3-0.3,1.9c0.2,0.3,0.4,0.5,0.6,0.7c0.7,0.8,0.6,2.1-0.2,2.8
		l6.3,0.1c-0.2,1.1,0.2,2.1,0.8,3.1c3.1,5.2,8.4,8.7,14.4,9.4c-0.6,0.3-0.8,1.1-0.5,1.7c0,0.1,0.1,0.1,0.1,0.2
		c0.5,0.5,1.4,0.4,2,0.1c0.6-0.3,1.1-0.9,1.7-1.3c1-0.7,2.3-1.1,3.6-1c0.8,0.1,1.6,0.3,2.4,0.4c2.3,0.1,4.3-1.6,6.6-2.2
		c1.6-0.5,3.5-0.5,4.9-1.5c0.6-0.4,1.1-1.2,0.9-1.9c-0.1-0.4-0.4-0.8-0.7-1.1c-0.8-1-1.3-2.3-1.8-3.4c-1.1-2.3-2.7-4.4-4.6-6.1
		c-1.4-1.2-2.9-2.4-4.5-3.4c-0.4-0.3-0.8-0.5-1.2-0.7c-0.6-0.2-1.2-0.4-1.7-0.7c-0.7-0.5-1.2-1.3-1.7-2c-1.3-1.5-3.2-2.1-4.7-3.3
		c-1-0.8-1.9-1.8-3.2-2.2c-0.6-0.2-1.2-0.2-1.8-0.4c-1.4-0.4-2.4-1.6-3.7-2.1c-1.1-0.4-2.2-0.3-3.3-0.4c-1.3-0.2-2.4-0.6-3.5-1.3
		c-0.3-0.3-0.7-0.5-1.1-0.6c-1.7-0.5-1.8,2.6-2,3.7C282.3,132,281.9,133.6,281.9,135.3z"/>
	<path class="st10" d="M283.5,145.8c0.3,3.1-2,6.1-1.4,9.1c0.1,0.6,0.4,1.3,0.5,1.9c0.3,1.8-0.8,3.5-1.8,5l-8.7,12.8
		c-0.4,0.6-0.8,1.1-1.2,1.5c-1.7,1.5-4.2,1.3-6.4,1.8c-1.5,0.3-3,1-4.3,1.9c-0.1,0.1-0.1,0.3-0.1,0.4c0.7,1,1.9,1.6,3.2,1.5
		c0.2,0.3,0,0.7-0.3,1c-0.5,0.3-1.1,0.4-1.2,1.2c0,0.3,0,0.6,0.2,0.8c0.4,0.5,0.9,0.9,1.5,1.1c3,0.9,6.3-0.7,8.6-2.9
		c2.3-2.2,3.9-5,6.1-7.2c1.2-1.2,2.6-2.3,3.9-3.5c2.5-2.4,4.5-5.3,6.4-8.3c0.6-0.9,1.1-1.8,1.4-2.8c0.2-1,0.1-2.1,0.4-3.1
		c0.4-1.3,1.3-2.3,2.1-3.4c1.6-2.1,2.6-4.7,2.4-7.4s-1.8-5.2-4.3-6.1c-0.8-0.3-1.6-0.4-2.4-0.1c-1,0.3-1.8,1.2-2.5,2l-1.7,1.9
		c-0.4,0.4-0.7,0.9-0.9,1.5c-0.2,0.6-0.1,1.2,0.3,1.6"/>
	<path class="st3" d="M288,133.2c-1.1,0.1-2.4,0.2-3.2,1c-0.3,0.4-0.6,0.8-0.8,1.3c-0.8,1.6-1.6,3.3-1.6,5.1c0,1.4,0.4,2.8,0.6,4.2
		c0.2,1.2-0.3,2.4-0.4,3.6c1.4-0.4,3.3-1,4.6-1.8c0.9-0.5,1.7-1.1,2.7-1.4c1.4-0.5,3.7,0.3,5,1c0.1-0.9-0.6-2.5-0.5-3.4
		c0-0.4,0.1-0.8,0.2-1.1c0.2-0.4,0.4-0.8,0.7-1.1c1-1.7,0.9-3.8-0.4-5.3c-1.2-1.3-3-1.8-4.7-2c-1.1-0.1-2.2-0.2-3.3-0.1"/>
</g>
</svg>
