<?xml version="1.0" encoding="utf-8"?>
<!-- Generator: Adobe Illustrator 23.1.1, SVG Export Plug-In . SVG Version: 6.00 Build 0)  -->
<svg version="1.1" id="ed352ff4-7a14-4498-84af-0dc7b5b1bcd0"
	 xmlns="http://www.w3.org/2000/svg" xmlns:xlink="http://www.w3.org/1999/xlink" x="0px" y="0px" viewBox="0 0 375 245"
	 style="enable-background:new 0 0 375 245;" xml:space="preserve">
<style type="text/css">
	.st0{fill:#F2F2F2;}
	.st1{fill:#FFFFFF;}
	.st2{fill:#3F3D56;}
	.st3{fill:#CCCCCC;}
	.st4{fill:#00D1B2;}
	.st5{fill:#FF6584;}
	.st6{fill:#FFB8B8;}
	.st7{fill:#2F2E41;}
</style>
<g>
	<path class="st0" d="M58.8,243.1c-29-7.6-49.1-34-48.7-64c0.1-3.6,0.4-7.3,2-10.6c1.5-3.3,4.4-6.1,7.9-6.9c3.9-0.9,8,0.9,10.8,3.6
		c2.9,2.7,4.8,6.3,6.5,9.9C47.8,196.5,55.8,219.5,58.8,243.1L58.8,243.1z"/>
	<path class="st1" d="M18.2,162.2l7.3,16.7l7.3,16.7c2.3,5.3,4.6,10.6,7.1,15.8c2.4,5.2,4.9,10.4,7.5,15.5
		c2.6,5.1,5.4,10.1,8.4,14.9c0.4,0.6,0.8,1.2,1.1,1.8c0.3,0.4,0.9,0,0.7-0.4c-3.1-4.8-5.9-9.8-8.6-14.8c-2.7-5.1-5.2-10.2-7.6-15.4
		c-2.4-5.2-4.7-10.5-7.1-15.8c-2.4-5.5-4.9-11.1-7.3-16.6l-7.3-16.7l-0.9-2.1C18.7,161.4,18,161.8,18.2,162.2L18.2,162.2z"/>
	<path class="st0" d="M55.7,243.2c-17.1,3.9-34.7-4.4-42.6-20.1c-1-1.9-1.8-3.9-1.9-6.1s0.6-4.4,2.2-5.7c1.8-1.5,4.4-1.7,6.6-1.1
		c2.2,0.6,4.2,2,6,3.4C37.4,222,47.8,231.8,55.7,243.2L55.7,243.2z"/>
	<path class="st1" d="M12.8,212.2l8.3,6.7l8.3,6.7c2.6,2.1,5.3,4.2,7.9,6.3c2.6,2.1,5.3,4.1,8.1,6c2.7,1.9,5.5,3.8,8.4,5.5
		c0.4,0.2,0.7,0.4,1.1,0.6c0.3,0.1,0.5-0.2,0.2-0.4c-2.9-1.7-5.7-3.5-8.5-5.4c-2.8-1.9-5.4-3.9-8.1-6c-2.7-2.1-5.3-4.2-7.9-6.3
		c-2.8-2.2-5.5-4.4-8.3-6.7l-8.3-6.7l-1-0.8C12.8,211.6,12.6,212,12.8,212.2L12.8,212.2z"/>
	<path class="st2" d="M361.7,0.5H138.1c-1.8,0-3.2,1.4-3.2,3.2v151.5c0,1.8,1.4,3.2,3.2,3.2h223.6c1.8,0,3.2-1.4,3.2-3.2V3.7
		C364.9,2,363.5,0.5,361.7,0.5z M364,155.2c0,1.3-1,2.3-2.3,2.3H138.1c-1.3,0-2.3-1-2.3-2.3V3.7c0-1.3,1-2.3,2.3-2.3h223.6
		c1.3,0,2.3,1,2.3,2.3V155.2z"/>
	<rect x="135.4" y="13.4" class="st2" width="229.1" height="0.9"/>
	<circle class="st2" cx="143.2" cy="7.4" r="2.8"/>
	<circle class="st2" cx="151.1" cy="7.4" r="2.8"/>
	<circle class="st2" cx="159" cy="7.4" r="2.8"/>
	<path class="st3" d="M191.3,34.7h-38.6c-1.8,0-3.2-1.4-3.2-3.2s1.4-3.2,3.2-3.2h38.6c1.8,0,3.2,1.4,3.2,3.2S193.1,34.7,191.3,34.7z
		"/>
	<path class="st3" d="M244.1,50.3h-91.4c-1.8,0-3.2-1.4-3.2-3.2s1.4-3.2,3.2-3.2h91.4c1.8,0,3.2,1.4,3.2,3.2S245.9,50.3,244.1,50.3
		L244.1,50.3z"/>
	<path class="st4" d="M273.6,56.5c-13.1,19-8.2,45,10.8,58.1c7,4.8,15.2,7.3,23.6,7.3V85.5L273.6,56.5z"/>
	<path class="st3" d="M308,38.4c-13.8,0-26.7,6.8-34.5,18.1L308,85.5V38.4z"/>
	<path class="st2" d="M308,122.4h-0.5V37.9h0.5c23.3,0,42.2,18.9,42.2,42.2S331.4,122.4,308,122.4z M308.5,38.9v82.6
		c22.8-0.3,41.1-19,40.9-41.8C349.1,57.2,331,39.1,308.5,38.9z"/>
	<path class="st3" d="M179.4,139.6h-7.8c-1.1,0-2.1-0.9-2.1-2.1v-22.5c0-1.1,0.9-2.1,2.1-2.1h7.8c1.1,0,2.1,0.9,2.1,2.1v22.5
		C181.4,138.7,180.5,139.6,179.4,139.6z"/>
	<path class="st5" d="M202.3,139.6h-7.8c-1.1,0-2.1-0.9-2.1-2.1v-33.1c0-1.1,0.9-2.1,2.1-2.1h7.8c1.1,0,2.1,0.9,2.1,2.1v33.1
		C204.4,138.7,203.5,139.6,202.3,139.6z"/>
	<path class="st4" d="M225.3,139.6h-7.8c-1.1,0-2.1-0.9-2.1-2.1V95.3c0-1.1,0.9-2.1,2.1-2.1h7.8c1.1,0,2.1,0.9,2.1,2.1v42.2
		C227.4,138.7,226.4,139.6,225.3,139.6z"/>
	<path class="st2" d="M179.4,139.8h-7.8c-1.3,0-2.3-1-2.3-2.3V87.1c0-1.3,1-2.3,2.3-2.3h7.8c1.3,0,2.3,1,2.3,2.3v50.5
		C181.7,138.8,180.7,139.8,179.4,139.8z M171.6,85.7c-0.8,0-1.4,0.6-1.4,1.4v50.5c0,0.8,0.6,1.4,1.4,1.4h7.8c0.8,0,1.4-0.6,1.4-1.4
		V87.1c0-0.8-0.6-1.4-1.4-1.4H171.6z"/>
	<path class="st2" d="M202.3,139.8h-7.8c-1.3,0-2.3-1-2.3-2.3V87.1c0-1.3,1-2.3,2.3-2.3h7.8c1.3,0,2.3,1,2.3,2.3v50.5
		C204.6,138.8,203.6,139.8,202.3,139.8z M194.5,85.7c-0.8,0-1.4,0.6-1.4,1.4v50.5c0,0.8,0.6,1.4,1.4,1.4h7.8c0.8,0,1.4-0.6,1.4-1.4
		V87.1c0-0.8-0.6-1.4-1.4-1.4H194.5z"/>
	<path class="st2" d="M225.3,139.8h-7.8c-1.3,0-2.3-1-2.3-2.3V87.1c0-1.3,1-2.3,2.3-2.3h7.8c1.3,0,2.3,1,2.3,2.3v50.5
		C227.6,138.8,226.6,139.8,225.3,139.8z M217.5,85.7c-0.8,0-1.4,0.6-1.4,1.4v50.5c0,0.8,0.6,1.4,1.4,1.4h7.8c0.8,0,1.4-0.6,1.4-1.4
		V87.1c0-0.8-0.6-1.4-1.4-1.4H217.5z"/>
	<path class="st6" d="M61.7,165.3c0.7-2.5-0.8-5-3.2-5.7c-0.3-0.1-0.5-0.1-0.8-0.1l-3.9-15.9l-5.8,6.3l4.6,14.2
		c-0.1,2.6,2,4.7,4.5,4.8C59.3,168.8,61.2,167.4,61.7,165.3L61.7,165.3z"/>
	<path class="st7" d="M51.1,160.4c-0.5-0.2-1-0.7-1.2-1.2l-6.6-20.3c-1.7-4.9-1.6-10.2,0.4-15l6.4-15.8c0.6-3.6,4-6.1,7.7-5.5
		c3.6,0.6,6.1,4,5.5,7.7c0,0,0,0,0,0l-8.8,25.5l3.1,20.8c0.1,0.9-0.4,1.7-1.2,2.1l-3.5,1.7c-0.4,0.2-0.8,0.2-1.2,0.2
		C51.4,160.5,51.3,160.5,51.1,160.4z"/>
	<polygon class="st6" points="83.7,238.5 89.3,238.5 92,216.8 83.7,216.8 	"/>
	<path class="st7" d="M100.2,243.7l-17.7,0l0,0l0-6.8l0,0l10.9,0C97.1,236.9,100.2,240,100.2,243.7L100.2,243.7L100.2,243.7z"/>
	<polygon class="st6" points="55.7,238.5 61.3,238.5 64,216.8 55.7,216.8 	"/>
	<path class="st7" d="M72.2,243.7l-17.7,0l0,0l0-6.8l0,0l10.9,0C69.1,236.9,72.2,240,72.2,243.7L72.2,243.7L72.2,243.7z"/>
	<path class="st7" d="M85.2,150l4.9,39.2c0.7,5.4,1.2,10.8,1.4,16.2l1.3,26.7c0.1,1-0.7,1.9-1.7,1.9c0,0-0.1,0-0.1,0h-7.5
		c-0.9,0-1.7-0.7-1.8-1.6L75,188c-0.1-0.5-0.5-0.8-1-0.8c-0.4,0.1-0.7,0.4-0.8,0.7l-8.1,43.6c-0.2,0.8-0.8,1.4-1.7,1.5l-6.9,0.4
		c-1,0.1-1.9-0.7-2-1.7c0-0.1,0-0.1,0-0.2l2.2-71.4L85.2,150z"/>
	<circle class="st6" cx="63.3" cy="82.9" r="11.3"/>
	<path class="st4" d="M54.5,161.1c2.8,6.4,14.7,11,17.4,1.8c2.1-7.1,10.6-10.1,14.3-11.1c1-0.3,1.6-1.3,1.3-2.2l-10.4-40.9
		c-1.2-4.8-4.9-8.7-9.7-10.2c-8.3-2.6-17,2.7-18.4,11.3c-0.4,2.4-0.6,4.8-0.7,7.2C47.5,135.1,52.7,156.8,54.5,161.1z"/>
	<path class="st6" d="M91.8,161c-0.3-2.5-2.5-4.4-5.1-4.1c-0.3,0-0.5,0.1-0.8,0.2l-9.4-13.4l-3.1,7.9l9.4,11.5
		c0.9,2.4,3.5,3.7,5.9,2.8C90.8,165.2,92.1,163.2,91.8,161L91.8,161z"/>
	<path class="st7" d="M80.2,160.3c-0.6,0-1.1-0.3-1.5-0.7L65.2,143c-3.3-3.9-5.1-8.9-5.1-14.1l0.3-17c-0.7-3.6,1.6-7.1,5.2-7.9
		c3.6-0.7,7.1,1.6,7.9,5.2c0,0,0,0,0,0l1,27l10.3,18.3c0.4,0.8,0.3,1.7-0.3,2.3l-2.7,2.8c-0.3,0.3-0.7,0.5-1.1,0.6
		C80.5,160.3,80.4,160.3,80.2,160.3z"/>
	<path class="st7" d="M54.8,92.2c0.9,0.5,2,0.2,2.5-0.6c0.1-0.1,0.1-0.3,0.2-0.4l0,0c0.2-0.9,0-1.7,0-2.6s0-1.8,0.6-2.5
		c1.1-1.2,3.1-0.6,4.7-0.9c2-0.4,3.3-2.3,3.1-4.2c0-0.2-0.1-0.4-0.1-0.5c-0.4-1.7,0.7-3.3,2.3-3.6c0.3-0.1,0.6-0.1,0.8-0.1
		c1.6,0.1,3.4,0.6,4.7-0.6c1-1,1.3-2.5,0.8-3.8c-0.8-2.2-2.9-3.4-5.1-4c-5.4-1.6-11.2-0.6-15.8,2.6c-1.4,1-2.6,2.2-3.2,3.7
		s-0.3,3.5,1,4.6c-2.1,2.2-2.8,5.3-1.9,8.2C50.1,89.3,53.2,91.3,54.8,92.2z"/>
	<path class="st2" d="M136.8,244.5H15.2c-0.3,0-0.5-0.2-0.5-0.5s0.2-0.5,0.5-0.5h121.7c0.3,0,0.5,0.2,0.5,0.5
		S137.1,244.5,136.8,244.5z"/>
</g>
</svg>
