<?xml version="1.0" encoding="utf-8"?>
<!-- Generator: Adobe Illustrator 23.1.1, SVG Export Plug-In . SVG Version: 6.00 Build 0)  -->
<svg version="1.1" id="ed352ff4-7a14-4498-84af-0dc7b5b1bcd0"
	 xmlns="http://www.w3.org/2000/svg" xmlns:xlink="http://www.w3.org/1999/xlink" x="0px" y="0px" viewBox="0 0 350 245"
	 style="enable-background:new 0 0 350 245;" xml:space="preserve">
<style type="text/css">
	.st0{fill:#F2F2F2;}
	.st1{fill:#FFFFFF;}
	.st2{fill:#3F3D56;}
	.st3{fill:#CCCCCC;}
	.st4{fill:#00D1B2;}
	.st5{fill:#FF6584;}
	.st6{fill:#FFB8B8;}
	.st7{fill:#2F2E41;}
</style>
<g>
	<path class="st0" d="M48,241.5C19.4,234-0.4,207.9,0,178.3c0.1-3.6,0.4-7.2,1.9-10.5s4.3-6.1,7.8-6.8c3.8-0.8,7.8,0.9,10.7,3.6
		c2.8,2.7,4.7,6.2,6.4,9.7C37.2,195.5,45.1,218.2,48,241.5L48,241.5z"/>
	<path class="st1" d="M8,161.7l7.2,16.5l7.2,16.5c2.3,5.2,4.6,10.4,7,15.6c2.4,5.1,4.8,10.2,7.4,15.3c2.6,5,5.3,9.9,8.3,14.7
		c0.4,0.6,0.7,1.2,1.1,1.8c0.3,0.4,0.9,0,0.7-0.4c-3-4.7-5.9-9.6-8.5-14.6c-2.6-5-5.1-10.1-7.5-15.2c-2.4-5.2-4.7-10.3-7-15.5
		c-2.4-5.5-4.8-10.9-7.2-16.4l-7.2-16.5l-0.9-2C8.5,160.9,7.8,161.3,8,161.7L8,161.7z"/>
	<path class="st0" d="M45,241.6c-16.9,3.9-34.2-4.3-42-19.8c-0.9-1.9-1.7-3.9-1.8-6c-0.1-2.1,0.6-4.3,2.2-5.7c1.8-1.5,4.3-1.7,6.5-1
		c2.2,0.6,4.1,2,6,3.3C27,220.6,37.2,230.3,45,241.6L45,241.6z"/>
	<path class="st1" d="M2.7,211l8.2,6.6l8.2,6.6c2.6,2.1,5.2,4.2,7.8,6.2c2.6,2,5.2,4,7.9,5.9c2.7,1.9,5.5,3.7,8.3,5.4
		c0.4,0.2,0.7,0.4,1.1,0.6c0.2,0.1,0.5-0.2,0.2-0.4c-2.9-1.6-5.6-3.4-8.4-5.3c-2.7-1.9-5.4-3.9-8-5.9c-2.6-2-5.2-4.1-7.8-6.2
		c-2.7-2.2-5.5-4.4-8.2-6.6L4,211.4l-1-0.8C2.7,210.4,2.5,210.8,2.7,211L2.7,211z"/>
	<path class="st2" d="M346.8,2.2H126.3c-1.7,0-3.2,1.4-3.2,3.2v149.4c0,1.7,1.4,3.2,3.2,3.2h220.5c1.7,0,3.2-1.4,3.2-3.2V5.3
		C350,3.6,348.6,2.2,346.8,2.2z M349.1,154.8c0,1.3-1,2.3-2.3,2.3H126.3c-1.3,0-2.3-1-2.3-2.3V5.3c0-1.3,1-2.3,2.3-2.3h220.5
		c1.3,0,2.3,1,2.3,2.3V154.8z"/>
	<rect x="123.6" y="14.9" class="st2" width="226" height="0.9"/>
	<circle class="st2" cx="131.3" cy="9" r="2.7"/>
	<circle class="st2" cx="139.1" cy="9" r="2.7"/>
	<circle class="st2" cx="146.9" cy="9" r="2.7"/>
	<path class="st3" d="M178.8,35.9h-38c-1.8,0-3.2-1.4-3.2-3.2c0-1.8,1.4-3.2,3.2-3.2h38c1.8,0,3.2,1.4,3.2,3.2
		C181.9,34.5,180.5,35.9,178.8,35.9z"/>
	<path class="st3" d="M230.8,51.3h-90.1c-1.8,0-3.2-1.4-3.2-3.2c0-1.8,1.4-3.2,3.2-3.2h90.1c1.8,0,3.2,1.4,3.2,3.2
		C234,49.9,232.6,51.3,230.8,51.3L230.8,51.3z"/>
	<path class="st4" d="M259.9,57.4c-12.9,18.8-8.1,44.4,10.7,57.3c6.9,4.7,15,7.2,23.3,7.2V86L259.9,57.4z"/>
	<path class="st3" d="M293.9,39.5c-13.6,0-26.3,6.7-34,17.9l34,28.5V39.5z"/>
	<path class="st2" d="M293.9,122.4h-0.5V39.1h0.5c23,0,41.7,18.7,41.7,41.7S316.9,122.4,293.9,122.4z M294.4,40v81.5
		c22.5-0.3,40.5-18.7,40.3-41.2C334.4,58.1,316.5,40.2,294.4,40z"/>
	<path class="st3" d="M167,139.4h-7.7c-1.1,0-2-0.9-2-2v-22.2c0-1.1,0.9-2,2-2h7.7c1.1,0,2,0.9,2,2v22.2
		C169,138.5,168.1,139.4,167,139.4z"/>
	<path class="st5" d="M189.6,139.4h-7.7c-1.1,0-2-0.9-2-2v-32.6c0-1.1,0.9-2,2-2h7.7c1.1,0,2,0.9,2,2v32.6
		C191.7,138.5,190.8,139.4,189.6,139.4z"/>
	<path class="st4" d="M212.3,139.4h-7.7c-1.1,0-2-0.9-2-2V95.7c0-1.1,0.9-2,2-2h7.7c1.1,0,2,0.9,2,2v41.7
		C214.3,138.5,213.4,139.4,212.3,139.4z"/>
	<path class="st2" d="M167,139.6h-7.7c-1.2,0-2.3-1-2.3-2.3V87.5c0-1.2,1-2.3,2.3-2.3h7.7c1.2,0,2.3,1,2.3,2.3v49.8
		C169.3,138.6,168.2,139.6,167,139.6z M159.3,86.2c-0.7,0-1.4,0.6-1.4,1.4v49.8c0,0.7,0.6,1.4,1.4,1.4h7.7c0.7,0,1.4-0.6,1.4-1.4
		V87.5c0-0.7-0.6-1.4-1.4-1.4H159.3z"/>
	<path class="st2" d="M189.6,139.6h-7.7c-1.2,0-2.3-1-2.3-2.3V87.5c0-1.2,1-2.3,2.3-2.3h7.7c1.2,0,2.3,1,2.3,2.3v49.8
		C191.9,138.6,190.9,139.6,189.6,139.6z M181.9,86.2c-0.7,0-1.4,0.6-1.4,1.4v49.8c0,0.7,0.6,1.4,1.4,1.4h7.7c0.7,0,1.4-0.6,1.4-1.4
		V87.5c0-0.7-0.6-1.4-1.4-1.4H181.9z"/>
	<path class="st2" d="M212.3,139.6h-7.7c-1.2,0-2.3-1-2.3-2.3V87.5c0-1.2,1-2.3,2.3-2.3h7.7c1.2,0,2.3,1,2.3,2.3v49.8
		C214.5,138.6,213.5,139.6,212.3,139.6z M204.6,86.2c-0.7,0-1.4,0.6-1.4,1.4v49.8c0,0.7,0.6,1.4,1.4,1.4h7.7c0.7,0,1.4-0.6,1.4-1.4
		V87.5c0-0.7-0.6-1.4-1.4-1.4H204.6z"/>
	<path class="st6" d="M50.9,164.7c0.7-2.4-0.8-4.9-3.2-5.6c-0.3-0.1-0.5-0.1-0.8-0.1L43,143.3l-5.7,6.2l4.6,14
		c-0.1,2.5,1.9,4.6,4.5,4.7C48.5,168.2,50.4,166.8,50.9,164.7L50.9,164.7z"/>
	<path class="st7" d="M40.5,159.9c-0.5-0.2-0.9-0.7-1.1-1.2l-6.5-20c-1.7-4.8-1.6-10.1,0.3-14.8l6.3-15.6c0.6-3.6,4-6,7.6-5.4
		c3.6,0.6,6,4,5.4,7.6c0,0,0,0,0,0l-8.6,25.2l3,20.5c0.1,0.9-0.4,1.7-1.2,2l-3.5,1.7c-0.4,0.2-0.8,0.2-1.2,0.2
		C40.8,160,40.6,160,40.5,159.9z"/>
	<polygon class="st6" points="72.6,236.9 78.2,236.9 80.8,215.5 72.6,215.5 	"/>
	<path class="st7" d="M88.9,242.1l-17.4,0l0,0l0-6.7l0,0l10.7,0C85.8,235.4,88.9,238.4,88.9,242.1L88.9,242.1L88.9,242.1z"/>
	<polygon class="st6" points="45,236.9 50.5,236.9 53.2,215.5 45,215.5 	"/>
	<path class="st7" d="M61.2,242.1l-17.4,0l0,0l0-6.7l0,0l10.7,0C58.2,235.4,61.2,238.4,61.2,242.1L61.2,242.1L61.2,242.1z"/>
	<path class="st7" d="M74.1,149.7l4.9,38.7c0.7,5.3,1.1,10.7,1.4,16l1.3,26.3c0,1-0.7,1.8-1.7,1.9c0,0-0.1,0-0.1,0h-7.4
		c-0.9,0-1.7-0.7-1.8-1.5l-6.7-43.9c-0.1-0.5-0.5-0.8-1-0.8c-0.4,0.1-0.7,0.4-0.8,0.7l-8,43c-0.2,0.8-0.8,1.4-1.6,1.4l-6.8,0.4
		c-1,0.1-1.9-0.7-1.9-1.7c0-0.1,0-0.1,0-0.2l2.2-70.4L74.1,149.7z"/>
	<circle class="st6" cx="52.5" cy="83.5" r="11.1"/>
	<path class="st4" d="M43.8,160.5c2.7,6.3,14.5,10.9,17.2,1.8c2.1-7,10.4-9.9,14.1-10.9c1-0.3,1.5-1.2,1.3-2.2l-10.3-40.3
		c-1.2-4.8-4.8-8.6-9.5-10c-8.2-2.5-16.8,2.7-18.1,11.1c-0.4,2.4-0.6,4.7-0.7,7.1C36.9,134.9,42,156.4,43.8,160.5z"/>
	<path class="st6" d="M80.6,160.5c-0.3-2.5-2.5-4.3-5-4.1c-0.3,0-0.5,0.1-0.8,0.2l-9.3-13.3l-3.1,7.8l9.3,11.4
		c0.9,2.4,3.5,3.6,5.9,2.8C79.6,164.6,80.9,162.6,80.6,160.5L80.6,160.5z"/>
	<path class="st7" d="M69.2,159.8c-0.6,0-1.1-0.3-1.5-0.7l-13.3-16.3c-3.3-3.9-5.1-8.8-5-13.9l0.3-16.8c-0.7-3.6,1.6-7,5.1-7.8
		c3.6-0.7,7,1.6,7.8,5.1c0,0,0,0,0,0l1,26.6l10.2,18c0.4,0.8,0.2,1.7-0.3,2.3l-2.7,2.8c-0.3,0.3-0.7,0.5-1.1,0.6
		C69.5,159.8,69.3,159.8,69.2,159.8z"/>
	<path class="st7" d="M44.1,92.6c0.9,0.5,2,0.2,2.5-0.6c0.1-0.1,0.1-0.3,0.2-0.4l0,0c0.2-0.8,0-1.7,0-2.6c-0.1-0.9,0-1.8,0.6-2.5
		c1.1-1.2,3.1-0.6,4.6-0.9c1.9-0.4,3.2-2.2,3.1-4.2c0-0.2-0.1-0.4-0.1-0.5c-0.4-1.6,0.7-3.2,2.3-3.6c0.3-0.1,0.6-0.1,0.8-0.1
		c1.6,0.1,3.3,0.6,4.7-0.6c1-1,1.3-2.4,0.8-3.7c-0.8-2.2-2.9-3.3-5-4c-5.3-1.5-11-0.6-15.6,2.6c-1.3,0.9-2.6,2.1-3.2,3.7
		s-0.3,3.5,1,4.5c-2,2.2-2.8,5.2-1.9,8.1C39.5,89.7,42.5,91.7,44.1,92.6z"/>
	<path class="st2" d="M125,242.8H5c-0.3,0-0.5-0.2-0.5-0.5c0-0.3,0.2-0.5,0.5-0.5h120c0.3,0,0.5,0.2,0.5,0.5
		C125.5,242.6,125.3,242.8,125,242.8z"/>
</g>
</svg>
